# Blender v2.73 (sub 0) OBJ File: 'cone.blend'
# www.blender.org
v 0.000000 -0.000000 -1.000000
v 0.000000 0.000000 0.000000
v 0.000000 1.000000 -1.000000
v 0.195090 0.980785 -1.000000
v 0.382683 0.923879 -1.000000
v 0.555570 0.831470 -1.000000
v 0.707107 0.707107 -1.000000
v 0.831470 0.555570 -1.000000
v 0.923880 0.382683 -1.000000
v 0.980785 0.195090 -1.000000
v 1.000000 0.000000 -1.000000
v 0.980785 -0.195090 -1.000000
v 0.923880 -0.382683 -1.000000
v 0.831470 -0.555570 -1.000000
v 0.707107 -0.707107 -1.000000
v 0.555570 -0.831470 -1.000000
v 0.382683 -0.923880 -1.000000
v 0.195090 -0.980785 -1.000000
v -0.000000 -1.000000 -1.000000
v -0.195091 -0.980785 -1.000000
v -0.382684 -0.923879 -1.000000
v -0.555571 -0.831469 -1.000000
v -0.707107 -0.707106 -1.000000
v -0.831470 -0.555570 -1.000000
v -0.923880 -0.382683 -1.000000
v -0.980785 -0.195090 -1.000000
v -1.000000 0.000001 -1.000000
v -0.980785 0.195091 -1.000000
v -0.923879 0.382684 -1.000000
v -0.831469 0.555571 -1.000000
v -0.707106 0.707108 -1.000000
v -0.555569 0.831470 -1.000000
v -0.382682 0.923880 -1.000000
v -0.195089 0.980785 -1.000000
vt 0.699388 0.300013
vt 0.559351 0.562006
vt 0.510930 0.529652
vt 0.469751 0.488473
vt 0.437396 0.440051
vt 0.415110 0.386249
vt 0.403749 0.329132
vt 0.403749 0.270896
vt 0.415110 0.213779
vt 0.437396 0.159976
vt 0.469750 0.111555
vt 0.510929 0.070376
vt 0.559350 0.038022
vt 0.613153 0.015736
vt 0.670270 0.004375
vt 0.728506 0.004374
vt 0.785622 0.015736
vt 0.839425 0.038021
vt 0.887847 0.070376
vt 0.929025 0.111554
vt 0.961380 0.159976
vt 0.983666 0.213779
vt 0.995027 0.270895
vt 0.995027 0.329131
vt 0.983666 0.386248
vt 0.961380 0.440051
vt 0.929026 0.488472
vt 0.887847 0.529651
vt 0.839426 0.562005
vt 0.785623 0.584291
vt 0.728506 0.595652
vt 0.670270 0.595652
vt 0.613154 0.584291
vt 0.116866 0.865181
vt 0.420241 0.574555
vt 0.159969 0.904341
vt 0.208074 0.937164
vt 0.260256 0.963020
vt 0.315511 0.981412
vt 0.372780 0.991985
vt 0.430960 0.994538
vt 0.488934 0.989021
vt 0.545588 0.975540
vt 0.599833 0.954354
vt 0.650628 0.925871
vt 0.696995 0.890637
vt 0.738046 0.849329
vt 0.772989 0.802742
vt 0.801155 0.751770
vt 0.822001 0.697393
vt 0.835128 0.640656
vt 0.372004 0.157215
vt 0.314755 0.167895
vt 0.259534 0.186389
vt 0.207401 0.212342
vt 0.159357 0.245254
vt 0.116326 0.284494
vt 0.079135 0.329307
vt 0.048498 0.378833
vt 0.025005 0.432120
vt 0.009105 0.488143
vt 0.001106 0.545827
vt 0.001160 0.604063
vt 0.009267 0.661732
vt 0.025270 0.717725
vt 0.048863 0.770968
vt 0.079591 0.820437
vn 0.000000 0.000000 -1.000000
vn 0.000000 0.931500 -0.363700
vn 0.181700 0.913600 -0.363700
vn 0.356500 0.860600 -0.363700
vn 0.517500 0.774500 -0.363700
vn 0.658700 0.658700 -0.363700
vn 0.774500 0.517500 -0.363700
vn 0.860600 0.356500 -0.363700
vn 0.913600 0.181700 -0.363700
vn 0.931500 0.000000 -0.363700
vn 0.913600 -0.181700 -0.363700
vn 0.860600 -0.356500 -0.363700
vn 0.774500 -0.517500 -0.363700
vn 0.658700 -0.658700 -0.363700
vn 0.517500 -0.774500 -0.363700
vn 0.356500 -0.860600 -0.363700
vn 0.181700 -0.913600 -0.363700
vn 0.000000 -0.931500 -0.363700
vn -0.181700 -0.913600 -0.363700
vn -0.356500 -0.860600 -0.363700
vn -0.517500 -0.774500 -0.363700
vn -0.658700 -0.658700 -0.363700
vn -0.774500 -0.517500 -0.363700
vn -0.860600 -0.356500 -0.363700
vn -0.913600 -0.181700 -0.363700
vn -0.931500 0.000000 -0.363700
vn -0.913600 0.181700 -0.363700
vn -0.860600 0.356500 -0.363700
vn -0.774500 0.517500 -0.363700
vn -0.658700 0.658700 -0.363700
vn -0.517500 0.774500 -0.363700
vn -0.356500 0.860600 -0.363700
vn -0.181700 0.913600 -0.363700
vn 0.000000 0.000000 1.000000
s 1
f 1/1/1 3/2/2 4/3/3
f 1/1/1 4/3/3 5/4/4
f 1/1/1 5/4/4 6/5/5
f 1/1/1 6/5/5 7/6/6
f 1/1/1 7/6/6 8/7/7
f 1/1/1 8/7/7 9/8/8
f 1/1/1 9/8/8 10/9/9
f 1/1/1 10/9/9 11/10/10
f 1/1/1 11/10/10 12/11/11
f 1/1/1 12/11/11 13/12/12
f 1/1/1 13/12/12 14/13/13
f 1/1/1 14/13/13 15/14/14
f 1/1/1 15/14/14 16/15/15
f 1/1/1 16/15/15 17/16/16
f 1/1/1 17/16/16 18/17/17
f 1/1/1 18/17/17 19/18/18
f 1/1/1 19/18/18 20/19/19
f 1/1/1 20/19/19 21/20/20
f 1/1/1 21/20/20 22/21/21
f 1/1/1 22/21/21 23/22/22
f 1/1/1 23/22/22 24/23/23
f 1/1/1 24/23/23 25/24/24
f 1/1/1 25/24/24 26/25/25
f 1/1/1 26/25/25 27/26/26
f 1/1/1 27/26/26 28/27/27
f 1/1/1 28/27/27 29/28/28
f 1/1/1 29/28/28 30/29/29
f 1/1/1 30/29/29 31/30/30
f 1/1/1 31/30/30 32/31/31
f 1/1/1 32/31/31 33/32/32
f 1/1/1 33/32/32 34/33/33
f 1/1/1 34/33/33 3/2/2
f 3/34/2 2/35/34 4/36/3
f 4/36/3 2/35/34 5/37/4
f 5/37/4 2/35/34 6/38/5
f 6/38/5 2/35/34 7/39/6
f 7/39/6 2/35/34 8/40/7
f 8/40/7 2/35/34 9/41/8
f 9/41/8 2/35/34 10/42/9
f 10/42/9 2/35/34 11/43/10
f 11/43/10 2/35/34 12/44/11
f 12/44/11 2/35/34 13/45/12
f 13/45/12 2/35/34 14/46/13
f 14/46/13 2/35/34 15/47/14
f 15/47/14 2/35/34 16/48/15
f 16/48/15 2/35/34 17/49/16
f 17/49/16 2/35/34 18/50/17
f 18/50/17 2/35/34 19/51/18
f 19/52/18 2/35/34 20/53/19
f 20/53/19 2/35/34 21/54/20
f 21/54/20 2/35/34 22/55/21
f 22/55/21 2/35/34 23/56/22
f 23/56/22 2/35/34 24/57/23
f 24/57/23 2/35/34 25/58/24
f 25/58/24 2/35/34 26/59/25
f 26/59/25 2/35/34 27/60/26
f 27/60/26 2/35/34 28/61/27
f 28/61/27 2/35/34 29/62/28
f 29/62/28 2/35/34 30/63/29
f 30/63/29 2/35/34 31/64/30
f 31/64/30 2/35/34 32/65/31
f 32/65/31 2/35/34 33/66/32
f 33/66/32 2/35/34 34/67/33
f 34/67/33 2/35/34 3/34/2
