# Blender v2.73 (sub 0) OBJ File: 'Station2.blend'
# www.blender.org
v 0.718008 0.000000 0.000000
v 1.123116 0.179765 0.000000
v 1.123116 0.179765 -10.000000
v 0.718008 0.000000 -10.000000
v 1.700000 1.000000 0.000000
v 1.700000 1.000000 -10.000000
v 0.000000 0.000000 0.000000
v 0.000000 0.000000 -10.000000
v -1.700000 1.000000 0.000000
v -1.123116 0.179765 0.000000
v -1.123116 0.179765 -10.000000
v -1.700000 1.000000 -10.000000
v -0.718008 0.000000 0.000000
v -0.718008 0.000000 -10.000000
v 1.000000 4.000000 0.000000
v 0.000000 4.000000 0.000000
v 0.000000 4.000000 -10.000000
v 1.000000 4.000000 -10.000000
v -1.700000 3.000000 0.000000
v -1.800000 2.000000 0.000000
v -1.800000 2.000000 -10.000000
v -1.700000 3.000000 -10.000000
v -1.000000 4.000000 0.000000
v -1.000000 4.000000 -10.000000
v 1.800000 2.000000 0.000000
v 1.700000 3.000000 0.000000
v 1.700000 3.000000 -10.000000
v 1.800000 2.000000 -10.000000
v -1.880547 0.914308 0.000000
v -1.880547 0.914308 -10.000000
v -1.055624 -0.083741 -10.000000
v -1.055624 -0.083741 -0.000000
v 1.055624 -0.083741 -0.000000
v 1.055624 -0.083741 -10.000000
v 1.880547 0.914308 -10.000000
v 1.880547 0.914308 0.000000
v 1.101640 4.172247 0.000000
v 1.101640 4.172247 -10.000000
v 0.000000 4.199945 -10.000046
v 0.000000 4.199945 -0.000046
v -1.101640 4.172247 0.000000
v -1.101640 4.172247 -10.000000
v -1.889760 3.063175 -10.000000
v -1.889760 3.063175 0.000000
v 0.000000 -0.204432 -10.000000
v 0.000000 -0.204432 -0.000000
v -1.999776 1.990541 -10.000000
v -1.999776 1.990541 0.000000
v 1.889760 3.063175 0.000000
v 1.889760 3.063175 -10.000000
v 1.999776 1.990541 -10.000000
v 1.999776 1.990541 0.000000
vt 0.390330 0.979778
vt 0.004165 0.979780
vt 0.004165 0.996895
vt 0.390330 0.941054
vt 0.004165 0.941056
vt 0.471714 0.995934
vt 0.471714 0.606449
vt 0.443749 0.606449
vt 0.390329 0.575586
vt 0.004164 0.575587
vt 0.004164 0.614311
vt 0.443749 0.995934
vt 0.415783 0.606449
vt 0.390330 0.777682
vt 0.004164 0.777683
vt 0.004164 0.816300
vt 0.390329 0.653119
vt 0.004164 0.653120
vt 0.004164 0.691929
vt 0.390329 0.614310
vt 0.390329 0.691928
vt 0.004164 0.739067
vt 0.390329 0.558472
vt 0.004164 0.558472
vt 0.390329 0.739066
vt 0.390330 0.863436
vt 0.004164 0.863437
vt 0.004165 0.902247
vt 0.348621 0.405872
vt 0.348621 0.450867
vt 0.001119 0.450867
vt 0.348621 0.039530
vt 0.348621 0.084526
vt 0.001119 0.084526
vt 0.348621 0.206904
vt 0.348623 0.245199
vt 0.001120 0.245199
vt 0.348621 0.283493
vt 0.348621 0.330773
vt 0.001119 0.330773
vt 0.348621 0.487790
vt 0.001119 0.487789
vt 0.348621 0.368243
vt 0.001119 0.368243
vt 0.348621 0.002607
vt 0.001119 0.039530
vt 0.348621 0.159624
vt 0.001119 0.206904
vt 0.001119 0.405871
vt 0.390330 0.816298
vt 0.348621 0.122154
vt 0.001119 0.122154
vt 0.001119 0.159624
vt 0.390330 0.902245
vt 0.390331 0.996892
vt 0.415783 0.995934
vt 0.001119 0.283493
vt 0.001119 0.002608
vn -0.634800 0.772700 0.000000
vn -0.207300 0.978300 0.000000
vn -0.937200 0.348800 0.000000
vn 0.000000 1.000000 0.000000
vn 0.634800 0.772700 0.000000
vn 0.937200 0.348800 0.000000
vn 0.207300 0.978300 0.000000
vn 0.000000 -1.000000 -0.000000
vn -0.461800 -0.887000 -0.000000
vn 1.000000 0.000000 0.000000
vn 0.937600 -0.347800 -0.000000
vn 0.461800 -0.887000 -0.000000
vn -0.937600 -0.347800 -0.000000
vn -1.000000 0.000000 -0.000000
vn -0.920900 -0.389900 -0.000000
vn -0.476800 -0.879000 -0.000000
vn 0.476800 -0.879000 -0.000000
vn 0.920900 -0.389900 -0.000000
vn 0.469800 0.882800 0.000000
vn -0.469800 0.882800 0.000000
vn -0.935900 0.352300 0.000000
vn -1.000000 -0.004100 -0.000000
vn 0.935900 0.352300 0.000000
vn 1.000000 -0.004100 -0.000000
usemtl StationMaterial
s 1
f 2/1/1 3/2/1 4/3/2
f 2/1/1 5/4/3 6/5/3
f 1/6/2 4/7/2 8/8/4
f 10/9/5 11/10/5 12/11/6
f 7/12/4 8/8/4 14/13/7
f 16/14/8 17/15/8 18/16/9
f 20/17/10 21/18/10 22/19/11
f 9/20/6 12/11/6 21/18/10
f 19/21/11 22/19/11 24/22/12
f 13/23/7 14/24/7 11/10/5
f 23/25/12 24/22/12 17/15/8
f 26/26/13 27/27/13 28/28/14
f 30/29/15 31/30/16 32/31/16
f 34/32/17 35/33/18 36/34/18
f 38/35/19 39/36/4 40/37/4
f 42/38/20 43/39/21 44/40/21
f 31/30/16 45/41/8 46/42/8
f 43/39/21 47/43/22 48/44/22
f 45/45/8 34/32/17 33/46/17
f 50/47/23 38/35/19 37/48/19
f 40/37/4 39/36/4 42/38/20
f 47/43/22 30/29/15 29/49/15
f 15/50/9 18/16/9 27/27/13
f 35/33/18 51/51/24 52/52/24
f 51/51/24 50/47/23 49/53/23
f 25/54/14 28/28/14 6/5/3
f 1/55/2 2/1/1 4/3/2
f 3/2/1 2/1/1 6/5/3
f 7/12/4 1/6/2 8/8/4
f 9/20/6 10/9/5 12/11/6
f 13/56/7 7/12/4 14/13/7
f 15/50/9 16/14/8 18/16/9
f 19/21/11 20/17/10 22/19/11
f 20/17/10 9/20/6 21/18/10
f 23/25/12 19/21/11 24/22/12
f 10/9/5 13/23/7 11/10/5
f 16/14/8 23/25/12 17/15/8
f 25/54/14 26/26/13 28/28/14
f 29/49/15 30/29/15 32/31/16
f 33/46/17 34/32/17 36/34/18
f 37/48/19 38/35/19 40/37/4
f 41/57/20 42/38/20 44/40/21
f 32/31/16 31/30/16 46/42/8
f 44/40/21 43/39/21 48/44/22
f 46/58/8 45/45/8 33/46/17
f 49/53/23 50/47/23 37/48/19
f 41/57/20 40/37/4 42/38/20
f 48/44/22 47/43/22 29/49/15
f 26/26/13 15/50/9 27/27/13
f 36/34/18 35/33/18 52/52/24
f 52/52/24 51/51/24 49/53/23
f 5/4/3 25/54/14 6/5/3
