# Blender v2.73 (sub 0) OBJ File: 'Station2.blend'
# www.blender.org
v 2.188493 1.212091 -7.868317
v 2.306756 1.990878 -7.868317
v 1.760665 1.999565 -7.868317
v 1.549248 1.275942 -7.868317
v 2.192801 2.801420 -7.868317
v 2.168257 2.975992 -7.868317
v 1.522548 2.917972 -7.868317
v 1.544857 2.755221 -7.868317
v 2.168257 2.975992 -2.141257
v 1.522548 2.917972 -2.141257
v 2.194699 2.787921 -2.141257
v 2.306756 1.990878 -2.141257
v 1.667470 1.999565 -2.141257
v 1.546582 2.742636 -2.141257
v 2.184268 1.184268 -2.141257
v 2.156660 1.002458 -2.141257
v 1.522548 1.081158 -2.141257
v 1.545704 1.250090 -2.141257
v 2.156660 1.002458 -7.868317
v 1.522548 1.081158 -7.868317
v 1.704594 1.009433 -8.208858
v 1.803229 2.001081 -8.208858
v 1.698326 2.997910 -8.208858
v 1.558536 3.203903 -8.208858
v 1.561844 3.203903 -1.791143
v 1.696218 1.004073 -1.791143
v 1.536680 0.798259 -1.791143
v 1.700138 2.998015 -1.791143
v 1.797214 2.001081 -1.791143
v 1.535397 0.798259 -8.208858
v 1.879255 0.925961 -8.208858
v 1.698597 0.695186 -8.208858
v 1.891600 3.065806 -8.208858
v 2.002181 1.989703 -8.208858
v 1.737679 3.279891 -1.791143
v 1.742693 3.279891 -8.208858
v 1.883164 0.915581 -1.791143
v 2.000766 1.989703 -1.791143
v 1.889897 3.064082 -1.791143
v 1.701378 0.695186 -1.791143
v 1.700000 1.000000 -8.000000
v 1.800000 2.000000 -8.000000
v 1.800000 2.000000 -10.000000
v 1.700000 1.000000 -10.000000
v 1.700000 3.000000 -8.000000
v 1.700000 3.000000 -10.000000
v 1.000000 4.000000 -8.000000
v 1.000000 4.000000 -10.000000
v 0.718008 0.000000 -8.000000
v 0.718008 0.000000 -10.000000
v 0.000000 0.000000 -10.000000
v 0.000000 0.000000 -8.000000
v 0.000000 4.000000 -8.000000
v 0.000000 4.000000 -10.000000
v 1.123116 0.179765 -8.000000
v 1.123116 0.179765 -10.000000
v 1.880547 0.914308 -8.000000
v 1.880547 0.914308 -10.000000
v 1.999776 1.990541 -10.000000
v 1.999776 1.990541 -8.000000
v 1.889760 3.063175 -10.000000
v 1.889760 3.063175 -8.000000
v 1.101640 4.172247 -10.000000
v 1.101640 4.172247 -8.000000
v 1.055624 -0.083741 -8.000000
v 0.000000 -0.204432 -8.000000
v 0.000000 -0.204432 -10.000000
v 1.055624 -0.083741 -10.000000
v 0.000000 4.199945 -8.000046
v 0.000000 4.199945 -10.000046
v -1.700000 1.000000 -8.000000
v -1.700000 1.000000 -10.000000
v -1.800000 2.000000 -10.000000
v -1.800000 2.000000 -8.000000
v -1.700000 3.000000 -10.000000
v -1.700000 3.000000 -8.000000
v -1.000000 4.000000 -10.000000
v -1.000000 4.000000 -8.000000
v -0.718008 0.000000 -8.000000
v -0.718008 0.000000 -10.000000
v -1.123116 0.179765 -8.000000
v -1.123116 0.179765 -10.000000
v -1.880547 0.914308 -8.000000
v -1.999776 1.990541 -8.000000
v -1.999776 1.990541 -10.000000
v -1.880547 0.914308 -10.000000
v -1.889760 3.063175 -8.000000
v -1.889760 3.063175 -10.000000
v -1.101640 4.172247 -8.000000
v -1.101640 4.172247 -10.000000
v -1.055624 -0.083741 -8.000000
v -1.055624 -0.083741 -10.000000
v -1.055624 -0.083741 -0.000000
v -1.880547 0.914308 0.000000
v -1.880547 0.914308 -2.000000
v -1.055624 -0.083741 -2.000000
v 0.000000 4.199945 -0.000046
v 0.000000 4.199945 -2.000046
v -1.101640 4.172247 -2.000000
v -1.101640 4.172247 0.000000
v 0.000000 -0.204432 -2.000000
v 0.000000 -0.204432 -0.000000
v -1.889760 3.063175 0.000000
v -1.889760 3.063175 -2.000000
v -1.999776 1.990541 0.000000
v -1.999776 1.990541 -2.000000
v 1.055624 -0.083741 -0.000000
v 1.055624 -0.083741 -2.000000
v 1.880547 0.914308 -2.000000
v 1.880547 0.914308 0.000000
v 1.101640 4.172247 0.000000
v 1.101640 4.172247 -2.000000
v 1.889760 3.063175 0.000000
v 1.889760 3.063175 -2.000000
v 1.999776 1.990541 0.000000
v 1.999776 1.990541 -2.000000
v -1.123116 0.179765 0.000000
v -1.123116 0.179765 -2.000000
v -1.700000 1.000000 -2.000000
v -1.700000 1.000000 0.000000
v 0.000000 4.000000 0.000000
v -1.000000 4.000000 0.000000
v -1.000000 4.000000 -2.000000
v 0.000000 4.000000 -2.000000
v -0.718008 0.000000 0.000000
v 0.000000 0.000000 0.000000
v 0.000000 0.000000 -2.000000
v -0.718008 0.000000 -2.000000
v -1.700000 3.000000 0.000000
v -1.700000 3.000000 -2.000000
v -1.800000 2.000000 0.000000
v -1.800000 2.000000 -2.000000
v 1.123116 0.179765 0.000000
v 1.700000 1.000000 0.000000
v 1.700000 1.000000 -2.000000
v 1.123116 0.179765 -2.000000
v 1.000000 4.000000 -2.000000
v 1.000000 4.000000 0.000000
v 0.718008 0.000000 0.000000
v 0.718008 0.000000 -2.000000
v 1.700000 3.000000 0.000000
v 1.700000 3.000000 -2.000000
v 1.800000 2.000000 0.000000
v 1.800000 2.000000 -2.000000
vt 0.545199 0.650592
vt 0.544675 0.680548
vt 0.521954 0.680585
vt 0.544831 0.718766
vt 0.519522 0.719963
vt 0.519726 0.713513
vt 0.608306 0.980839
vt 0.583054 0.980838
vt 0.583057 0.757764
vt 0.592650 0.711759
vt 0.592576 0.682152
vt 0.617737 0.682432
vt 0.592854 0.645003
vt 0.617613 0.644652
vt 0.617625 0.651330
vt 0.525601 0.751325
vt 0.551299 0.751325
vt 0.551298 0.981648
vt 0.520435 0.648975
vt 0.507282 0.680512
vt 0.503667 0.721312
vt 0.571832 0.744499
vt 0.633220 0.642502
vt 0.617747 0.713292
vt 0.632925 0.682465
vt 0.562688 0.737630
vt 0.562667 0.637882
vt 0.545369 0.642137
vt 0.544777 0.711743
vt 0.562301 0.680563
vt 0.608309 0.757764
vt 0.628678 0.744500
vt 0.592819 0.652136
vt 0.575193 0.682004
vt 0.575564 0.723907
vt 0.592637 0.719128
vt 0.503419 0.737630
vt 0.525601 0.981648
vt 0.562020 0.723650
vt 0.520350 0.641261
vt 0.504423 0.639938
vt 0.575950 0.640073
vt 0.617764 0.720229
vt 0.633466 0.722410
vt 0.313612 0.901625
vt 0.390867 0.901625
vt 0.390867 0.940445
vt 0.313612 0.862805
vt 0.390867 0.862805
vt 0.313612 0.815654
vt 0.390867 0.815654
vt 0.414773 0.604821
vt 0.442933 0.604741
vt 0.443155 0.683181
vt 0.390867 0.777026
vt 0.313612 0.940445
vt 0.390867 0.979181
vt 0.349303 0.084196
vt 0.349303 0.121887
vt 0.279685 0.121887
vt 0.349303 0.159420
vt 0.279685 0.159420
vt 0.349303 0.206780
vt 0.279685 0.206781
vt 0.279685 0.002140
vt 0.349303 0.002140
vt 0.349303 0.039124
vt 0.279687 0.245139
vt 0.279685 0.084196
vt 0.390867 0.613607
vt 0.390867 0.652427
vt 0.313612 0.652427
vt 0.390867 0.691247
vt 0.313612 0.691247
vt 0.390867 0.738398
vt 0.313612 0.738398
vt 0.471093 0.604661
vt 0.390867 0.574872
vt 0.313612 0.613607
vt 0.279685 0.368391
vt 0.349303 0.368391
vt 0.349303 0.406083
vt 0.279685 0.330858
vt 0.349303 0.330858
vt 0.279685 0.283498
vt 0.349303 0.283498
vt 0.349303 0.451154
vt 0.349303 0.488139
vt 0.279686 0.488139
vt 0.349305 0.245139
vt 0.279685 0.406083
vt 0.001215 0.406083
vt 0.070833 0.406083
vt 0.070833 0.451154
vt 0.001217 0.245139
vt 0.070834 0.245139
vt 0.070833 0.283498
vt 0.070833 0.488139
vt 0.001215 0.488139
vt 0.001215 0.283498
vt 0.070833 0.330858
vt 0.001215 0.330858
vt 0.070833 0.368391
vt 0.001215 0.368391
vt 0.070833 0.039124
vt 0.070833 0.084196
vt 0.001215 0.084196
vt 0.001215 0.206781
vt 0.070833 0.206781
vt 0.001215 0.002140
vt 0.070833 0.002140
vt 0.070833 0.159421
vt 0.070833 0.121888
vt 0.001215 0.159421
vt 0.001215 0.121888
vt 0.279685 0.451154
vt 0.279685 0.039124
vt 0.081846 0.574872
vt 0.081846 0.613607
vt 0.004591 0.613607
vt 0.004591 0.738398
vt 0.081846 0.738398
vt 0.081846 0.777026
vt 0.444044 0.996939
vt 0.443822 0.918500
vt 0.471982 0.918420
vt 0.081846 0.691248
vt 0.081846 0.652427
vt 0.004591 0.691248
vt 0.004591 0.940445
vt 0.081846 0.940445
vt 0.081846 0.979181
vt 0.081846 0.815654
vt 0.004591 0.815654
vt 0.415661 0.918579
vt 0.081846 0.862805
vt 0.004591 0.862805
vt 0.081846 0.901625
vt 0.004591 0.901625
vt 0.313612 0.574872
vt 0.313612 0.777026
vt 0.471316 0.683101
vt 0.313612 0.979181
vt 0.414995 0.683260
vt 0.313612 0.996300
vt 0.081846 0.996300
vt 0.004591 0.979181
vt 0.390867 0.996300
vt 0.081846 0.557752
vt 0.313612 0.557752
vt 0.004591 0.574872
vt 0.004591 0.557752
vt 0.390867 0.557752
vt 0.505360 0.731288
vt 0.571811 0.994476
vt 0.630659 0.632527
vt 0.562689 0.995728
vt 0.566173 0.626709
vt 0.628834 0.994476
vt 0.572903 0.733826
vt 0.503511 0.995727
vt 0.564765 0.733687
vt 0.506941 0.629218
vt 0.572903 0.629386
vt 0.631330 0.731989
vt 0.001215 0.451154
vt 0.001215 0.039124
vt 0.004591 0.777026
vt 0.472204 0.996860
vt 0.004591 0.652427
vt 0.415884 0.997019
vt 0.004591 0.996300
vn 0.894600 -0.118500 0.430800
vn 0.925000 -0.004600 0.379900
vn -0.677800 0.002600 0.735200
vn 0.978400 0.180400 0.100700
vn -0.918800 -0.383900 0.091700
vn -0.846700 -0.119600 0.518400
vn 0.976800 0.185500 -0.107100
vn -0.921200 -0.376800 -0.096700
vn 0.893200 0.107900 -0.436400
vn 0.922900 -0.004600 -0.384900
vn -0.789200 0.000200 -0.614100
vn 0.972900 -0.204600 -0.107200
vn -0.899700 0.423800 -0.104100
vn -0.843300 0.103100 -0.527400
vn 0.974800 -0.202200 0.093700
vn -0.897000 0.432400 0.091200
vn -0.848700 0.118500 0.515500
vn -0.972900 -0.000200 -0.231000
vn -0.816700 -0.306800 -0.488700
vn -0.908000 -0.268600 -0.321700
vn -0.816200 0.332700 0.472400
vn -0.845300 -0.101500 -0.524500
vn -0.925000 0.000200 0.379900
vn -0.883200 0.343800 -0.319000
vn 0.753300 -0.387400 -0.531500
vn 0.895400 0.107900 0.432000
vn 0.755800 -0.004700 -0.654800
vn 0.666800 0.720400 -0.190900
vn 0.890500 -0.115300 -0.440000
vn 0.764100 -0.004100 0.645000
vn 0.770200 0.360100 0.526300
vn 0.636200 -0.750700 -0.178100
vn 0.767100 0.355800 -0.533800
vn -0.804300 0.331700 -0.493000
vn 0.763100 -0.410200 0.499400
vn -0.822600 -0.304300 0.480400
vn -1.000000 0.000000 -0.000000
vn -0.937200 0.348800 0.000000
vn -0.903900 -0.427800 -0.000000
vn -0.937600 -0.347800 0.000000
vn -0.461800 -0.887000 0.000000
vn -0.207300 0.978300 0.000000
vn 0.000000 1.000000 0.000000
vn 0.000000 -1.000000 0.000000
vn -0.903200 0.429200 0.000000
vn -0.634800 0.772700 0.000000
vn 0.920900 -0.389900 -0.000000
vn 1.000000 -0.004100 -0.000000
vn 0.935900 0.352300 0.000000
vn 0.901500 0.432900 0.000000
vn 0.469800 0.882800 0.000000
vn 0.469800 0.882700 0.000000
vn 0.476800 -0.879000 -0.000000
vn 0.877700 -0.479200 -0.000000
vn 0.937200 0.348800 0.000000
vn 1.000000 0.000000 0.000000
vn 0.937600 -0.347800 0.000000
vn 0.461800 -0.887000 0.000000
vn 0.207300 0.978300 0.000000
vn 0.634800 0.772700 0.000000
vn -1.000000 -0.004100 0.000000
vn -0.920900 -0.389900 -0.000000
vn -0.935900 0.352300 0.000000
vn -0.469800 0.882700 0.000000
vn -0.469800 0.882800 0.000000
vn -0.476800 -0.879000 -0.000000
vn -0.920800 -0.389900 0.000000
vn -0.476700 -0.879000 0.000000
vn 0.476700 -0.879000 0.000000
vn -0.908400 -0.268000 0.320900
vn -0.887600 0.340100 0.310700
vn 0.664500 0.722700 0.190000
vn 0.634300 -0.756100 0.161200
usemtl StationMaterial
s 1
f 1/1/1 2/2/2 3/3/3
f 6/4/4 7/5/5 8/6/6
f 9/7/7 10/8/8 7/9/5
f 11/10/9 12/11/10 13/12/11
f 16/13/12 17/14/13 18/15/14
f 19/16/15 20/17/16 17/18/13
f 4/19/17 3/3/3 22/20/18
f 23/21/19 8/6/6 7/5/5
f 24/22/20 7/9/5 10/8/8
f 26/23/21 18/15/14 17/14/13
f 14/24/22 13/12/11 29/25/23
f 17/18/13 20/17/16 30/26/24
f 31/27/25 1/1/1 19/28/15
f 5/29/26 2/2/2 34/30/27
f 9/7/7 6/31/4 36/32/28
f 15/33/29 12/11/10 38/34/30
f 39/35/31 11/10/9 9/36/7
f 32/37/32 19/16/15 16/38/12
f 6/4/4 5/29/26 33/39/33
f 22/20/18 3/3/3 8/6/6
f 5/29/26 8/6/6 3/3/3
f 1/1/1 31/27/25 34/30/27
f 20/40/16 4/19/17 21/41/34
f 19/28/15 1/1/1 4/19/17
f 16/13/12 15/33/29 37/42/35
f 29/25/23 13/12/11 18/15/14
f 15/33/29 18/15/14 13/12/11
f 38/34/30 12/11/10 11/10/9
f 10/43/8 14/24/22 28/44/36
f 9/36/7 11/10/9 14/24/22
f 42/45/37 43/46/37 44/47/38
f 45/48/39 46/49/40 43/46/37
f 47/50/41 48/51/41 46/49/40
f 50/52/42 51/53/43 52/54/43
f 54/55/44 48/51/41 47/50/41
f 41/56/45 44/47/38 56/57/46
f 58/58/47 59/59/48 60/60/48
f 59/59/48 61/61/49 62/62/50
f 61/61/49 63/63/51 64/64/52
f 66/65/44 67/66/44 68/67/53
f 69/68/43 64/64/52 63/63/51
f 68/67/53 58/58/47 57/69/54
f 72/70/55 73/71/56 74/72/56
f 73/71/56 75/73/57 76/74/57
f 75/73/57 77/75/58 78/76/58
f 52/54/43 51/53/43 80/77/59
f 78/76/58 77/75/58 54/55/44
f 82/78/60 72/70/55 71/79/55
f 84/80/61 85/81/61 86/82/62
f 87/83/63 88/84/63 85/81/61
f 89/85/64 90/86/65 88/84/63
f 92/87/66 67/88/44 66/89/44
f 69/68/43 70/90/43 90/86/65
f 83/91/67 86/82/62 92/87/66
f 94/92/62 95/93/67 96/94/68
f 97/95/43 98/96/43 99/97/64
f 96/94/68 101/98/44 102/99/44
f 100/100/65 99/97/64 104/101/63
f 103/102/63 104/101/63 106/103/61
f 105/104/61 106/103/61 95/93/67
f 108/105/69 109/106/54 110/107/47
f 97/95/43 111/108/51 112/109/52
f 102/110/44 101/111/44 108/105/69
f 114/112/50 112/109/52 111/108/51
f 116/113/48 114/112/50 113/114/49
f 109/106/54 116/113/48 115/115/48
f 95/93/67 83/91/67 91/116/68
f 98/96/43 69/68/43 89/85/64
f 91/116/68 66/89/44 101/98/44
f 99/97/64 89/85/64 87/83/63
f 104/101/63 87/83/63 84/80/61
f 106/103/61 84/80/61 83/91/67
f 65/117/69 57/69/54 109/106/54
f 98/96/43 112/109/52 64/64/52
f 101/111/44 66/65/44 65/117/69
f 62/62/50 64/64/52 112/109/52
f 118/118/60 119/119/55 120/120/55
f 122/121/58 123/122/58 124/123/44
f 126/124/43 127/125/43 128/126/59
f 130/127/57 123/122/58 122/121/58
f 132/128/56 130/127/57 129/129/57
f 120/120/55 119/119/55 132/128/56
f 134/130/38 135/131/45 136/132/46
f 124/123/44 137/133/41 138/134/41
f 140/135/42 127/125/43 126/124/43
f 138/134/41 137/133/41 142/136/39
f 141/137/40 142/136/39 144/138/37
f 143/139/37 144/138/37 135/131/45
f 81/140/60 71/79/55 119/119/55
f 123/122/58 78/76/58 53/141/44
f 127/125/43 52/54/43 79/142/59
f 76/74/57 78/76/58 123/122/58
f 74/72/56 76/74/57 130/127/57
f 71/79/55 74/72/56 132/128/56
f 135/131/45 41/56/45 55/143/46
f 53/141/44 47/50/41 137/133/41
f 49/144/42 52/54/43 127/125/43
f 137/133/41 47/50/41 45/48/39
f 55/143/46 49/145/42 140/146/42
f 133/147/46 136/132/46 140/146/42
f 55/143/46 56/57/46 50/148/42
f 128/149/59 79/150/59 81/140/60
f 117/151/60 125/152/59 128/149/59
f 81/140/60 79/150/59 80/153/59
f 4/19/17 1/1/1 3/3/3
f 5/29/26 6/4/4 8/6/6
f 6/31/4 9/7/7 7/9/5
f 14/24/22 11/10/9 13/12/11
f 15/33/29 16/13/12 18/15/14
f 16/38/12 19/16/15 17/18/13
f 21/41/34 4/19/17 22/20/18
f 24/154/20 23/21/19 7/5/5
f 25/155/70 24/22/20 10/8/8
f 27/156/71 26/23/21 17/14/13
f 28/44/36 14/24/22 29/25/23
f 27/157/71 17/18/13 30/26/24
f 32/158/32 31/27/25 19/28/15
f 33/39/33 5/29/26 34/30/27
f 35/159/72 9/7/7 36/32/28
f 37/42/35 15/33/29 38/34/30
f 35/160/72 39/35/31 9/36/7
f 40/161/73 32/37/32 16/38/12
f 36/162/28 6/4/4 33/39/33
f 23/21/19 22/20/18 8/6/6
f 2/2/2 5/29/26 3/3/3
f 2/2/2 1/1/1 34/30/27
f 30/163/24 20/40/16 21/41/34
f 20/40/16 19/28/15 4/19/17
f 40/164/73 16/13/12 37/42/35
f 26/23/21 29/25/23 18/15/14
f 12/11/10 15/33/29 13/12/11
f 39/35/31 38/34/30 11/10/9
f 25/165/70 10/43/8 28/44/36
f 10/43/8 9/36/7 14/24/22
f 41/56/45 42/45/37 44/47/38
f 42/45/37 45/48/39 43/46/37
f 45/48/39 47/50/41 46/49/40
f 49/144/42 50/52/42 52/54/43
f 53/141/44 54/55/44 47/50/41
f 55/143/46 41/56/45 56/57/46
f 57/69/54 58/58/47 60/60/48
f 60/60/48 59/59/48 62/62/50
f 62/62/50 61/61/49 64/64/52
f 65/117/69 66/65/44 68/67/53
f 70/90/43 69/68/43 63/63/51
f 65/117/69 68/67/53 57/69/54
f 71/79/55 72/70/55 74/72/56
f 74/72/56 73/71/56 76/74/57
f 76/74/57 75/73/57 78/76/58
f 79/142/59 52/54/43 80/77/59
f 53/141/44 78/76/58 54/55/44
f 81/140/60 82/78/60 71/79/55
f 83/91/67 84/80/61 86/82/62
f 84/80/61 87/83/63 85/81/61
f 87/83/63 89/85/64 88/84/63
f 91/116/68 92/87/66 66/89/44
f 89/85/64 69/68/43 90/86/65
f 91/116/68 83/91/67 92/87/66
f 93/166/66 94/92/62 96/94/68
f 100/100/65 97/95/43 99/97/64
f 93/166/66 96/94/68 102/99/44
f 103/102/63 100/100/65 104/101/63
f 105/104/61 103/102/63 106/103/61
f 94/92/62 105/104/61 95/93/67
f 107/167/53 108/105/69 110/107/47
f 98/96/43 97/95/43 112/109/52
f 107/167/53 102/110/44 108/105/69
f 113/114/49 114/112/50 111/108/51
f 115/115/48 116/113/48 113/114/49
f 110/107/47 109/106/54 115/115/48
f 96/94/68 95/93/67 91/116/68
f 99/97/64 98/96/43 89/85/64
f 96/94/68 91/116/68 101/98/44
f 104/101/63 99/97/64 87/83/63
f 106/103/61 104/101/63 84/80/61
f 95/93/67 106/103/61 83/91/67
f 108/105/69 65/117/69 109/106/54
f 69/68/43 98/96/43 64/64/52
f 108/105/69 101/111/44 65/117/69
f 114/112/50 62/62/50 112/109/52
f 117/151/60 118/118/60 120/120/55
f 121/168/44 122/121/58 124/123/44
f 125/169/59 126/124/43 128/126/59
f 129/129/57 130/127/57 122/121/58
f 131/170/56 132/128/56 129/129/57
f 131/170/56 120/120/55 132/128/56
f 133/147/46 134/130/38 136/132/46
f 121/168/44 124/123/44 138/134/41
f 139/171/42 140/135/42 126/124/43
f 141/137/40 138/134/41 142/136/39
f 143/139/37 141/137/40 144/138/37
f 134/130/38 143/139/37 135/131/45
f 118/118/60 81/140/60 119/119/55
f 124/123/44 123/122/58 53/141/44
f 128/126/59 127/125/43 79/142/59
f 130/127/57 76/74/57 123/122/58
f 132/128/56 74/72/56 130/127/57
f 119/119/55 71/79/55 132/128/56
f 136/132/46 135/131/45 55/143/46
f 124/123/44 53/141/44 137/133/41
f 140/135/42 49/144/42 127/125/43
f 142/136/39 137/133/41 45/48/39
f 136/132/46 55/143/46 140/146/42
f 139/172/42 133/147/46 140/146/42
f 49/145/42 55/143/46 50/148/42
f 118/118/60 128/149/59 81/140/60
f 118/118/60 117/151/60 128/149/59
f 82/78/60 81/140/60 80/153/59
