# Blender v2.69 (sub 0) OBJ File: 'Station.blend'
# www.blender.org
usemtl StationMaterial
v 1.000000 4.000000 -10.000000
v 1.000000 4.000000 0.000000
v 0.000000 4.000000 0.000000
v 0.000000 4.000000 -10.000000
v -1.700000 1.000000 -10.000000
v -1.700000 1.000000 0.000000
v -1.123116 0.179765 0.000000
v -1.123116 0.179765 -10.000000
v -1.700000 3.000000 -10.000000
v -1.700000 3.000000 0.000000
v -1.800000 2.000000 0.000000
v -1.800000 2.000000 -10.000000
v -0.718008 0.000000 0.000000
v -0.718008 0.000000 -10.000000
v -1.000000 4.000000 -10.000000
v -1.000000 4.000000 0.000000
v 0.000000 0.000000 0.000000
v 0.000000 0.000000 -10.000000
v -1.889760 3.063175 0.000000
v -1.889760 3.063175 -10.000000
v -1.999776 1.990541 -10.000000
v -1.999776 1.990541 0.000000
v 1.123116 0.179765 0.000000
v 1.123116 0.179765 -10.000000
v 0.718008 0.000000 -10.000000
v 0.718008 0.000000 0.000000
v 1.700000 1.000000 0.000000
v 1.700000 1.000000 -10.000000
v 1.700000 3.000000 -10.000000
v 1.700000 3.000000 0.000000
v 1.055624 -0.083741 -0.000000
v 1.055624 -0.083741 -10.000000
v 1.880547 0.914308 -10.000000
v 1.880547 0.914308 0.000000
v -1.055624 -0.083741 -0.000000
v -1.055624 -0.083741 -10.000000
v 0.000000 -0.204432 -10.000000
v 0.000000 -0.204432 -0.000000
v -1.880547 0.914308 0.000000
v -1.880547 0.914308 -10.000000
v 0.000000 4.199945 -10.000046
v -1.101640 4.172247 -10.000000
v -1.101640 4.172247 0.000000
v 0.000000 4.199945 -0.000046
v 1.101640 4.172247 0.000000
v 1.101640 4.172247 -10.000000
v 1.999776 1.990541 0.000000
v 1.999776 1.990541 -10.000000
v 1.889760 3.063175 -10.000000
v 1.889760 3.063175 0.000000
v 1.800000 2.000000 0.000000
v 1.800000 2.000000 -10.000000
vt 0.306717 0.810953
vt 0.589865 0.810953
vt 0.306717 0.839268
vt 0.306717 0.959057
vt 0.589865 0.959058
vt 0.306718 0.987451
vt 0.306717 0.902145
vt 0.589865 0.902145
vt 0.306718 0.930601
vt 0.589865 0.987451
vt 0.589865 1.000000
vt 0.589865 0.867583
vt 0.921170 0.918970
vt 0.638023 0.918969
vt 0.921170 0.898639
vt 0.000000 0.872062
vt 0.283147 0.872062
vt 0.000000 0.902593
vt 0.589865 0.691085
vt 0.306717 0.691085
vt 0.589865 0.678537
vt 0.306717 0.867583
vt 0.589865 0.839268
vt 0.638023 0.878309
vt 0.921170 0.878309
vt 0.638023 0.898639
vt 0.589865 0.719478
vt 0.306717 0.719479
vt 0.589865 0.776391
vt 0.000000 0.634754
vt 0.283147 0.634755
vt 0.000000 0.671417
vt 0.000000 0.969916
vt 0.283148 0.969915
vt 0.000000 1.000000
vt 0.000001 0.604670
vt 0.283148 0.604670
vt 0.000000 0.933252
vt 0.283148 0.933252
vt 0.283148 0.802335
vt 0.283147 0.833537
vt 0.000000 0.833537
vt 0.000000 0.771132
vt 0.283147 0.771132
vt 0.283148 0.902592
vt 0.000000 0.702077
vt 0.283147 0.702077
vt 0.000000 0.732608
vt 0.283147 0.732608
vt 0.283147 0.671417
vt 0.306717 0.747935
vt 0.589865 0.930601
vt 0.589865 0.747934
vt 0.306717 0.776391
vt 0.306718 0.999999
vt 0.306718 0.678536
vt 0.283148 1.000000
vt 0.000001 0.802335
vn -0.461810 -0.886979 -0.000000
vn 0.000000 -1.000000 -0.000000
vn 0.937191 0.348817 0.000000
vn 0.634796 0.772680 0.000000
vn 0.937578 -0.347775 -0.000000
vn 1.000000 0.000000 -0.000000
vn 0.207306 0.978276 0.000000
vn 0.461810 -0.886979 -0.000000
vn 0.000000 1.000000 0.000000
vn -0.935893 0.352284 0.000000
vn -0.935893 0.352285 0.000000
vn -0.999992 -0.004063 0.000000
vn -0.634796 0.772680 0.000000
vn -0.207306 0.978276 0.000000
vn -0.937191 0.348817 0.000000
vn -0.937578 -0.347775 -0.000000
vn 0.476756 -0.879036 -0.000000
vn 0.920857 -0.389900 -0.000000
vn -0.476756 -0.879036 -0.000000
vn -0.920857 -0.389900 -0.000000
vn -0.469791 0.882778 0.000000
vn -0.469802 0.882771 0.000000
vn 0.469802 0.882771 0.000000
vn 0.469791 0.882778 0.000000
vn -0.999992 -0.004062 -0.000000
vn 0.999992 -0.004062 0.000000
vn 0.999992 -0.004063 -0.000000
vn 0.935893 0.352284 0.000000
vn -1.000000 -0.000000 0.000000
s 1
f 1/1/1 2/2/1 4/3/2
f 5/4/3 6/5/3 8/6/4
f 9/7/5 10/8/5 12/9/6
f 7/10/4 13/11/7 8/6/4
f 10/8/5 9/7/5 16/12/8
f 14/13/7 13/14/7 18/15/9
f 19/16/10 20/17/11 22/18/12
f 23/19/13 24/20/13 26/21/14
f 16/12/8 15/22/8 3/23/2
f 26/24/14 25/25/14 17/26/9
f 27/27/15 28/28/15 23/19/13
f 2/2/1 1/1/1 30/29/16
f 31/30/17 32/31/17 34/32/18
f 35/33/19 36/34/19 38/35/2
f 38/36/2 37/37/2 31/30/17
f 39/38/20 40/39/20 35/33/19
f 41/40/9 42/41/21 43/42/22
f 45/43/23 46/44/24 41/40/9
f 21/45/25 40/39/20 22/18/12
f 47/46/26 48/47/27 50/48/28
f 49/49/28 46/44/24 50/48/28
f 43/42/22 42/41/21 19/16/10
f 34/32/18 33/50/18 47/46/26
f 28/28/15 27/27/15 52/51/29
f 6/5/3 5/4/3 11/52/6
f 52/51/29 51/53/29 29/54/16
f 2/2/1 3/23/2 4/3/2
f 6/5/3 7/10/4 8/6/4
f 10/8/5 11/52/6 12/9/6
f 13/11/7 14/55/7 8/6/4
f 9/7/5 15/22/8 16/12/8
f 13/14/7 17/26/9 18/15/9
f 20/17/11 21/45/25 22/18/12
f 24/20/13 25/56/14 26/21/14
f 15/22/8 4/3/2 3/23/2
f 25/25/14 18/15/9 17/26/9
f 28/28/15 24/20/13 23/19/13
f 1/1/1 29/54/16 30/29/16
f 32/31/17 33/50/18 34/32/18
f 36/34/19 37/57/2 38/35/2
f 37/37/2 32/31/17 31/30/17
f 40/39/20 36/34/19 35/33/19
f 44/58/9 41/40/9 43/42/22
f 44/58/9 45/43/23 41/40/9
f 40/39/20 39/38/20 22/18/12
f 48/47/27 49/49/28 50/48/28
f 46/44/24 45/43/23 50/48/28
f 42/41/21 20/17/11 19/16/10
f 33/50/18 48/47/27 47/46/26
f 27/27/15 51/53/29 52/51/29
f 5/4/3 12/9/6 11/52/6
f 51/53/29 30/29/16 29/54/16
