# Blender v2.69 (sub 0) OBJ File: 'Station.blend'
# www.blender.org
usemtl StationMaterial
v 0.000000 4.000000 -3.979914
v -1.000000 4.000000 -3.333333
v -1.000000 4.000000 -5.000000
v 0.000000 4.000000 -5.000000
v -1.000000 4.000000 -6.666667
v 0.000000 4.000000 -6.020086
v -0.718008 0.000000 0.000000
v 0.000000 0.000000 0.000000
v 0.000000 0.000000 -3.332351
v -0.718008 0.000000 -3.333333
v 0.718008 0.000000 0.000000
v 0.718008 0.000000 -3.571610
v -0.718008 0.000000 -10.000000
v -0.718008 0.000000 -6.666667
v 0.000000 0.000000 -6.667649
v 0.000000 0.000000 -10.000000
v 0.718008 0.000000 -6.428391
v 0.718008 0.000000 -10.000000
v 0.718008 0.000000 -5.717408
v 5.000000 0.000000 -5.718009
v 5.000000 0.179765 -6.123116
v 1.123116 0.179765 -6.274528
v 0.000000 0.000000 -5.000000
v 0.718008 0.000000 -5.000000
v -0.718008 0.000000 -5.000000
v 0.000000 0.000000 -4.281737
v 0.718008 0.000000 -4.282592
v 1.000000 4.000000 -6.233366
v -1.123116 0.179765 -3.333333
v -1.123116 0.179765 -5.000000
v -1.700000 3.000000 -3.333333
v -1.700000 3.000000 -5.000000
v -1.800000 2.000000 -3.333333
v -1.700000 1.000000 -3.333333
v -1.700000 1.000000 -5.000000
v -1.800000 2.000000 -5.000000
v 5.000000 0.000000 -4.281993
v 1.123116 0.179765 -3.725472
v 5.000000 0.179765 -3.876885
v 5.000000 0.000000 -5.000001
v 0.000000 4.199945 -5.000046
v -1.101640 4.172247 -6.666667
v -1.101640 4.172247 -3.333333
v 0.000000 4.199945 -0.000046
v -1.101640 4.172247 0.000000
v 1.101640 4.172247 0.000000
v 1.201640 4.172247 -3.803475
v 5.000046 4.199945 -5.000001
v 5.000000 4.172248 -6.101641
v 1.201640 4.172247 -6.196525
v 5.000000 4.172247 -3.898361
v 1.700000 3.000000 0.000000
v 1.000000 4.000000 0.000000
v 1.000000 4.000000 -3.766634
v 1.700000 3.000000 -3.105139
v 0.000000 4.000000 0.000000
v 1.123116 0.179765 0.000000
v 1.700000 1.000000 0.000000
v 1.700000 1.000000 -3.111034
v 0.000000 -0.204432 -0.000000
v 0.000000 -0.204432 -5.000000
v 1.155624 -0.083741 -3.875486
v 1.055624 -0.083741 -0.000000
v 0.000000 -0.204432 -10.000000
v 1.055624 -0.083741 -10.000000
v 1.155624 -0.083741 -6.124514
v -1.055624 -0.083741 -3.333333
v -1.055624 -0.083741 -6.666667
v 1.889760 3.063175 0.000000
v 1.989760 3.063175 -3.030861
v 1.989760 3.063175 -6.969139
v 1.889760 3.063175 -10.000000
v 1.101640 4.172247 -10.000000
v -1.055624 -0.083741 -10.000000
v 0.000000 4.199945 -10.000046
v 0.000000 4.000000 -10.000000
v 1.000000 4.000000 -10.000000
v -1.123116 0.179765 -6.666667
v -1.700000 1.000000 -6.666667
v -1.700000 1.000000 0.000000
v -1.123116 0.179765 0.000000
v 1.800000 2.000000 -6.992047
v 1.700000 3.000000 -6.894861
v 1.700000 3.000000 -10.000000
v 1.800000 2.000000 -10.000000
v -1.800000 2.000000 -6.666667
v -1.700000 3.000000 -6.666667
v -1.700000 3.000000 0.000000
v -1.800000 2.000000 0.000000
v -1.000000 4.000000 0.000000
v 1.800000 2.000000 0.000000
v 1.800000 2.000000 -3.007953
v -1.880547 0.914308 -3.333333
v -1.880547 0.914308 -6.666667
v -1.880547 0.914308 0.000000
v -1.055624 -0.083741 -0.000000
v 1.980547 0.914308 -3.030597
v 1.880547 0.914308 0.000000
v -1.889760 3.063175 -6.666667
v -1.889760 3.063175 -3.333333
v -1.889760 3.063175 0.000000
v -1.999776 1.990541 -6.666667
v -1.999776 1.990541 -3.333333
v -1.999776 1.990541 0.000000
v 1.880547 0.914308 -10.000000
v 1.980547 0.914308 -6.969403
v 2.099776 1.990541 -2.907010
v 1.999776 1.990541 0.000000
v 2.099776 1.990541 -7.092990
v 1.999776 1.990541 -10.000000
v 1.700000 1.000000 -6.888967
v 1.700000 1.000000 -10.000000
v -1.999776 1.990541 -10.000000
v -1.880547 0.914308 -10.000000
v -1.101640 4.172247 -10.000000
v -1.889760 3.063175 -10.000000
v -1.000000 4.000000 -10.000000
v -1.123116 0.179765 -10.000000
v -1.700000 3.000000 -10.000000
v -1.700000 1.000000 -10.000000
v -1.800000 2.000000 -10.000000
v 1.123116 0.179765 -10.000000
v 5.000000 2.000000 -3.200001
v 5.000000 1.000000 -3.300001
v 5.000000 1.990541 -3.000225
v 5.000000 3.063175 -3.110241
v 5.000000 0.914308 -3.119454
v 5.000000 4.000000 -4.000001
v 5.000000 3.000000 -3.300000
v 5.000000 1.990541 -6.999777
v 5.000000 0.914308 -6.880548
v 5.000000 -0.204432 -5.000001
v 5.000000 -0.083741 -3.944377
v 5.000000 3.063175 -6.889761
v 5.000000 -0.083741 -6.055625
v 5.000000 4.000001 -6.000001
v 5.000000 4.000000 -5.000001
v 5.000000 3.000000 -6.700001
v 5.000000 1.000000 -6.700001
v 5.000000 2.000000 -6.800001
vt 0.805310 0.218668
vt 0.819209 0.254533
vt 0.770815 0.216209
vt 0.770181 0.248685
vt 0.720802 0.252646
vt 0.000000 0.586273
vt 0.000000 0.565942
vt 0.094384 0.586274
vt 0.000000 0.545612
vt 0.101131 0.545613
vt 0.283149 0.586273
vt 0.188767 0.586273
vt 0.283149 0.565943
vt 0.188794 0.565943
vt 0.182020 0.545613
vt 0.571495 0.070277
vt 0.663987 0.000000
vt 0.670921 0.008873
vt 0.587988 0.080805
vt 0.574902 0.085196
vt 0.141575 0.565943
vt 0.141576 0.545613
vt 0.141576 0.586274
vt 0.121238 0.565943
vt 0.094356 0.565943
vt 0.121262 0.545613
vt 0.161889 0.545613
vt 0.724233 0.182860
vt 0.736211 0.217248
vt 0.806240 0.360341
vt 0.805280 0.370077
vt 0.769118 0.358578
vt 0.814033 0.287846
vt 0.810881 0.313284
vt 0.808384 0.337412
vt 0.769382 0.310573
vt 0.769704 0.284154
vt 0.769181 0.335298
vt 0.887654 0.005903
vt 0.976081 0.080578
vt 0.880299 0.014377
vt 0.971923 0.095246
vt 0.959135 0.090204
vt 0.141576 0.424370
vt 0.161906 0.424371
vt 0.121246 0.424370
vt 0.753207 0.645067
vt 0.803875 0.686361
vt 0.703350 0.687305
vt 0.609831 0.675755
vt 0.614703 0.702861
vt 0.602504 0.652880
vt 0.709296 0.609739
vt 0.751744 0.498209
vt 0.775639 0.495599
vt 0.727799 0.496086
vt 0.933289 0.221162
vt 0.918150 0.239985
vt 0.818695 0.184993
vt 0.989214 0.185647
vt 0.969559 0.194386
vt 0.505282 0.584546
vt 0.524686 0.462644
vt 0.528445 0.589565
vt 0.978090 0.457991
vt 1.000000 0.579522
vt 0.976934 0.585017
vt 0.710756 0.819162
vt 0.797765 0.818968
vt 0.754216 0.845811
vt 0.588655 0.630516
vt 0.662813 0.572673
vt 0.842179 0.570862
vt 0.917547 0.627217
vt 0.796425 0.608862
vt 0.884419 0.822268
vt 0.904148 0.649878
vt 0.621365 0.233284
vt 1.000000 0.182162
vt 0.729496 0.336946
vt 0.882764 0.350329
vt 0.879054 0.371905
vt 0.649616 0.126208
vt 0.682174 0.150526
vt 0.590397 0.198245
vt 0.724950 0.286474
vt 0.892213 0.306986
vt 0.887054 0.328668
vt 0.727440 0.312353
vt 0.900291 0.281209
vt 0.769149 0.368426
vt 0.731445 0.360421
vt 0.877523 0.381517
vt 0.950702 0.206812
vt 0.862011 0.154835
vt 0.927748 0.111422
vt 0.709690 0.785048
vt 0.798619 0.784679
vt 0.624106 0.790484
vt 0.625774 0.822836
vt 0.556652 0.487006
vt 0.552162 0.599699
vt 0.706707 0.726363
vt 0.619511 0.736389
vt 0.800907 0.725692
vt 0.708443 0.756003
vt 0.622142 0.763357
vt 0.946617 0.483013
vt 0.953420 0.595641
vt 0.799556 0.755485
vt 0.596232 0.519657
vt 0.571460 0.613958
vt 0.629135 0.545943
vt 0.875324 0.543445
vt 0.934409 0.610300
vt 0.907696 0.516480
vt 0.618379 0.103696
vt 0.887350 0.761551
vt 0.897284 0.672920
vt 0.892966 0.700143
vt 0.889398 0.734099
vt 0.885784 0.789220
vt 0.637236 0.275851
vt 0.732407 0.370466
vt 0.655009 0.371422
vt 0.647857 0.325845
vt 0.643574 0.303015
vt 0.607133 0.213566
vt 0.651588 0.348682
vt 0.572123 0.184792
vt 0.542217 0.170947
vt 0.927398 0.110893
vt 0.895201 0.131706
vt 0.843654 0.043476
vt 0.629572 0.545403
vt 0.683077 0.474341
vt 0.663320 0.572046
vt 0.596713 0.519065
vt 0.664856 0.458630
vt 0.861582 0.154222
vt 0.822628 0.054405
vt 0.874876 0.542914
vt 0.819912 0.472939
vt 0.907202 0.515898
vt 0.703072 0.487513
vt 0.639728 0.416392
vt 0.649744 0.437802
vt 0.841660 0.570245
vt 0.800186 0.486521
vt 0.852500 0.435710
vt 0.837812 0.456853
vt 0.751128 0.060052
vt 0.682634 0.149932
vt 0.726632 0.051954
vt 0.650003 0.125689
vt 0.618757 0.103184
vt 0.706140 0.039927
vt 0.797779 0.061228
vt 0.686949 0.025707
vt 0.863485 0.030308
vt 0.283149 0.545613
vt 0.908151 0.259626
vt 0.883479 0.849493
vt 0.630415 0.253589
vt 0.895561 0.132241
vt 0.626735 0.849493
vt 0.656478 0.381517
vt 0.552858 0.175003
vt 0.862078 0.414090
vt 0.774399 0.062746
vn 0.000000 -1.000000 0.000000
vn 0.461806 -0.886959 0.000000
vn 0.207306 0.978276 0.000000
vn 0.000000 1.000000 0.000000
vn 0.207282 0.978271 0.000000
vn -0.207306 0.978276 0.000000
vn -0.207282 0.978271 0.000000
vn -0.045167 0.997803 0.047945
vn 0.000029 0.978272 0.207324
vn -0.016795 0.779012 0.626785
vn -0.315165 0.916196 0.247414
vn 0.000000 0.999969 0.000000
vn -0.045167 0.997803 -0.047945
vn -0.154637 -0.977111 0.145878
vn 0.634785 0.772668 0.000000
vn 0.937559 -0.347758 0.000000
vn 1.000000 0.000000 0.000000
vn 0.937162 0.348796 0.000000
vn 0.000029 0.978272 -0.207324
vn -0.016795 0.779012 -0.626784
vn -0.315165 0.916196 -0.247414
vn -0.006623 0.999969 0.000000
vn -0.469771 0.882748 0.000000
vn -0.469802 0.882772 0.000000
vn 0.463710 0.885907 0.011874
vn 0.155553 0.975494 0.155522
vn -0.000000 1.000000 0.000001
vn 0.011289 0.885760 -0.464006
vn 0.011289 0.885760 0.464006
vn -0.937578 -0.347775 0.000000
vn -0.461810 -0.886979 0.000000
vn -0.154637 -0.977111 -0.145878
vn -0.634796 0.772680 0.000000
vn -0.937191 0.348817 0.000000
vn -0.029878 -0.999542 0.000000
vn 0.471145 -0.881990 0.010791
vn 0.471145 -0.881990 -0.010791
vn -0.476730 -0.879025 0.000000
vn 0.934242 0.355492 0.028603
vn 0.600635 0.516098 0.610584
vn 0.600635 0.516098 -0.610584
vn 0.934242 0.355492 -0.028603
vn 0.155553 0.975494 -0.155522
vn -0.476756 -0.879036 -0.000000
vn 0.463699 0.885913 -0.011874
vn 0.937191 0.348817 0.000000
vn 0.634796 0.772680 0.000000
vn -0.729362 0.002075 0.684072
vn -0.629444 -0.501816 0.593219
vn -1.000000 0.000000 -0.000000
vn 0.937578 -0.347775 0.000000
vn 0.461810 -0.886979 0.000000
vn -0.629444 -0.501816 -0.593219
vn -0.630787 0.521714 -0.574358
vn -0.920835 -0.389874 0.000000
vn -0.920857 -0.389900 -0.000000
vn 0.167852 -0.970794 0.171239
vn 0.918897 -0.393501 0.028006
vn -0.935881 0.352275 0.000000
vn -0.935893 0.352284 0.000000
vn -0.999969 -0.004059 0.000000
vn -0.999992 -0.004063 0.000000
vn 0.167852 -0.970794 -0.171239
vn 0.918897 -0.393501 -0.028006
vn 0.581317 -0.571062 0.579577
vn 0.999438 -0.004068 0.033282
vn 0.708243 -0.002808 0.705924
vn 0.708243 -0.002808 -0.705924
vn 0.999438 -0.004068 -0.033282
vn 0.581317 -0.571062 -0.579577
vn -0.630787 0.521714 0.574358
vn -0.999992 -0.004062 -0.000000
vn -0.469791 0.882778 0.000000
vn -0.935893 0.352285 0.000000
vn -0.729362 0.002075 -0.684072
vn -0.058405 0.000551 -0.998293
vn 0.028814 -0.003137 0.999580
vn 0.023350 -0.394254 0.918705
vn -0.054960 -0.350547 -0.934931
vn 0.028814 -0.003137 -0.999580
vn 0.024195 0.353926 0.934961
vn 0.007524 -0.881100 0.472871
vn 0.024194 0.353925 -0.934961
vn 0.007524 -0.881100 -0.472871
vn 0.023349 -0.394254 -0.918705
vn -0.026135 -0.893667 0.447970
vn -0.054960 -0.350547 0.934931
vn -0.058404 0.000550 0.998293
vn -0.026135 -0.893667 -0.447969
vn -0.046936 0.355877 0.933354
vn -0.046936 0.355876 -0.933354
vn -0.000000 -1.000000 -0.000001
s 1
f 1/1/1 2/2/2 4/3/1
f 4/3/1 3/4/2 5/5/2
f 7/6/3 8/7/4 10/8/5
f 8/7/4 11/9/6 12/10/7
f 13/11/3 14/12/5 16/13/4
f 16/13/4 15/14/4 17/15/7
f 19/16/8 20/17/9 21/18/10
f 19/16/8 22/19/11 17/20/7
f 23/21/4 24/22/12 15/14/4
f 14/12/5 25/23/5 15/14/4
f 26/24/4 10/8/5 9/25/4
f 27/26/13 26/24/4 9/25/4
f 26/24/4 27/26/13 24/22/12
f 23/21/4 25/23/5 10/8/5
f 17/15/7 15/14/4 19/27/8
f 28/28/14 4/3/1 6/29/1
f 29/30/15 10/31/5 30/32/15
f 2/2/2 31/33/16 3/4/2
f 33/34/17 34/35/18 36/36/17
f 31/33/16 33/34/17 32/37/16
f 34/35/18 29/30/15 35/38/18
f 37/39/19 27/40/13 39/41/20
f 12/42/7 38/43/21 27/40/13
f 40/44/4 20/45/9 24/22/12
f 37/46/19 40/44/4 24/22/12
f 41/47/22 42/48/23 43/49/23
f 44/50/4 41/47/22 45/51/24
f 46/52/25 47/53/26 41/47/22
f 41/47/22 48/54/27 49/55/28
f 47/53/26 51/56/29 41/47/22
f 52/57/30 53/58/31 54/59/32
f 1/1/1 54/59/32 53/58/31
f 57/60/33 58/61/34 38/43/21
f 60/62/1 61/63/35 63/64/36
f 61/65/35 64/66/1 65/67/37
f 67/68/38 68/69/38 61/70/35
f 69/71/39 70/72/40 47/53/26
f 71/73/41 72/74/42 50/75/43
f 68/69/38 74/76/44 61/70/35
f 50/75/43 73/77/45 41/47/22
f 28/28/14 6/29/1 77/78/31
f 11/79/6 57/60/33 38/43/21
f 35/38/18 30/32/15 79/80/18
f 80/81/46 81/82/47 34/35/18
f 82/83/48 83/84/49 85/85/50
f 32/37/16 36/36/17 87/86/16
f 88/87/51 89/88/17 31/33/16
f 36/36/17 35/38/18 86/89/17
f 89/88/17 80/81/46 33/34/17
f 3/4/2 32/37/16 5/5/2
f 90/90/52 88/87/51 2/2/2
f 30/32/15 25/91/5 78/92/15
f 81/82/47 7/93/3 29/30/15
f 54/59/32 1/1/1 4/3/1
f 2/2/2 1/1/1 90/90/52
f 91/94/50 52/57/30 55/95/53
f 58/61/34 91/94/50 59/96/54
f 93/97/55 94/98/55 67/68/38
f 95/99/56 93/97/55 96/100/44
f 63/64/36 62/101/57 98/102/58
f 43/49/23 42/48/23 100/103/59
f 45/51/24 43/49/23 101/104/60
f 100/103/59 99/105/59 103/106/61
f 101/104/60 100/103/59 104/107/62
f 66/108/63 65/67/37 105/109/64
f 103/106/61 102/110/61 93/97/55
f 104/107/62 103/106/61 95/99/56
f 98/102/58 97/111/65 108/112/66
f 108/112/66 107/113/67 70/72/40
f 109/114/68 110/115/69 71/73/41
f 106/116/70 105/109/64 110/115/69
f 111/117/71 82/83/48 85/85/50
f 102/110/61 113/118/72 94/98/55
f 41/47/22 75/119/4 115/120/73
f 96/100/44 67/68/38 61/70/35
f 99/105/59 116/121/74 102/110/61
f 42/48/23 115/120/73 99/105/59
f 94/98/55 114/122/56 68/69/38
f 6/29/1 5/5/2 117/123/52
f 78/92/15 14/124/5 118/125/47
f 5/5/2 87/86/16 117/123/52
f 86/89/17 79/80/18 121/126/17
f 87/86/16 86/89/17 119/127/51
f 83/84/49 28/28/14 84/128/30
f 79/80/18 78/92/15 120/129/46
f 22/19/11 111/117/71 112/130/34
f 17/20/7 22/19/11 18/131/6
f 59/132/54 92/133/75 123/134/76
f 107/135/67 125/136/77 70/137/40
f 97/138/65 127/139/78 125/136/77
f 55/140/53 54/59/32 129/141/79
f 109/142/68 130/143/80 106/144/70
f 70/137/40 126/145/81 47/53/26
f 61/63/35 132/146/1 133/147/82
f 71/148/41 134/149/83 130/143/80
f 66/108/63 135/150/84 61/65/35
f 50/75/43 49/55/28 134/149/83
f 62/101/57 133/147/82 127/139/78
f 106/144/70 131/151/85 66/108/63
f 92/133/75 55/140/53 123/134/76
f 4/3/1 28/28/14 136/152/86
f 28/28/14 83/153/49 138/154/87
f 82/155/48 111/156/71 140/157/88
f 83/153/49 82/155/48 140/157/88
f 54/59/32 4/3/1 128/158/89
f 111/156/71 22/19/11 139/159/90
f 38/43/21 59/132/54 124/160/91
f 2/2/2 3/4/2 4/3/1
f 6/29/1 4/3/1 5/5/2
f 8/7/4 9/25/4 10/8/5
f 9/25/4 8/7/4 12/10/7
f 14/12/5 15/14/4 16/13/4
f 18/161/6 16/13/4 17/15/7
f 22/19/11 19/16/8 21/18/10
f 24/22/12 19/27/8 15/14/4
f 25/23/5 23/21/4 15/14/4
f 12/10/7 27/26/13 9/25/4
f 23/21/4 26/24/4 24/22/12
f 26/24/4 23/21/4 10/8/5
f 10/31/5 25/91/5 30/32/15
f 31/33/16 32/37/16 3/4/2
f 34/35/18 35/38/18 36/36/17
f 33/34/17 36/36/17 32/37/16
f 29/30/15 30/32/15 35/38/18
f 27/40/13 38/43/21 39/41/20
f 20/45/9 19/27/8 24/22/12
f 27/26/13 37/46/19 24/22/12
f 41/47/22 43/49/23 45/51/24
f 44/50/4 46/52/25 41/47/22
f 50/75/43 41/47/22 49/55/28
f 51/56/29 48/54/27 41/47/22
f 55/95/53 52/57/30 54/59/32
f 56/162/1 1/1/1 53/58/31
f 58/61/34 59/96/54 38/43/21
f 61/63/35 62/101/57 63/64/36
f 66/108/63 61/65/35 65/67/37
f 46/52/25 69/71/39 47/53/26
f 72/74/42 73/77/45 50/75/43
f 74/76/44 64/163/1 61/70/35
f 73/77/45 75/119/4 41/47/22
f 6/29/1 76/164/1 77/78/31
f 12/42/7 11/79/6 38/43/21
f 30/32/15 78/92/15 79/80/18
f 81/82/47 29/30/15 34/35/18
f 83/84/49 84/128/30 85/85/50
f 36/36/17 86/89/17 87/86/16
f 89/88/17 33/34/17 31/33/16
f 35/38/18 79/80/18 86/89/17
f 80/81/46 34/35/18 33/34/17
f 32/37/16 87/86/16 5/5/2
f 88/87/51 31/33/16 2/2/2
f 25/91/5 14/124/5 78/92/15
f 7/93/3 10/31/5 29/30/15
f 1/1/1 56/162/1 90/90/52
f 92/165/75 91/94/50 55/95/53
f 91/94/50 92/165/75 59/96/54
f 94/98/55 68/69/38 67/68/38
f 93/97/55 67/68/38 96/100/44
f 62/101/57 97/111/65 98/102/58
f 42/48/23 99/105/59 100/103/59
f 43/49/23 100/103/59 101/104/60
f 99/105/59 102/110/61 103/106/61
f 100/103/59 103/106/61 104/107/62
f 106/116/70 66/108/63 105/109/64
f 102/110/61 94/98/55 93/97/55
f 103/106/61 93/97/55 95/99/56
f 97/111/65 107/113/67 108/112/66
f 69/71/39 108/112/66 70/72/40
f 110/115/69 72/74/42 71/73/41
f 109/114/68 106/116/70 110/115/69
f 112/130/34 111/117/71 85/85/50
f 113/118/72 114/122/56 94/98/55
f 42/48/23 41/47/22 115/120/73
f 60/166/1 96/100/44 61/70/35
f 116/121/74 113/118/72 102/110/61
f 115/120/73 116/121/74 99/105/59
f 114/122/56 74/76/44 68/69/38
f 76/164/1 6/29/1 117/123/52
f 14/124/5 13/167/3 118/125/47
f 87/86/16 119/127/51 117/123/52
f 79/80/18 120/129/46 121/126/17
f 86/89/17 121/126/17 119/127/51
f 28/28/14 77/78/31 84/128/30
f 78/92/15 118/125/47 120/129/46
f 122/168/33 22/19/11 112/130/34
f 22/19/11 122/168/33 18/131/6
f 124/160/91 59/132/54 123/134/76
f 125/136/77 126/145/81 70/137/40
f 107/135/67 97/138/65 125/136/77
f 54/59/32 128/158/89 129/141/79
f 130/143/80 131/151/85 106/144/70
f 126/145/81 51/56/29 47/53/26
f 62/101/57 61/63/35 133/147/82
f 109/142/68 71/148/41 130/143/80
f 135/150/84 132/169/1 61/65/35
f 71/148/41 50/75/43 134/149/83
f 97/138/65 62/101/57 127/139/78
f 131/151/85 135/150/84 66/108/63
f 55/140/53 129/141/79 123/134/76
f 137/170/92 4/3/1 136/152/86
f 136/152/86 28/28/14 138/154/87
f 111/156/71 139/159/90 140/157/88
f 138/154/87 83/153/49 140/157/88
f 4/3/1 137/170/92 128/158/89
f 22/19/11 21/18/10 139/159/90
f 39/41/20 38/43/21 124/160/91
