# Blender v2.69 (sub 0) OBJ File: 'Station.blend'
# www.blender.org
usemtl StationMaterial
v 2.188493 1.212091 -7.868317
v 2.306756 1.990878 -7.868317
v 1.760665 1.999565 -7.868317
v 1.549248 1.275942 -7.868317
v 2.192801 2.801420 -7.868317
v 2.168257 2.975992 -7.868317
v 1.522548 2.917972 -7.868317
v 1.544857 2.755221 -7.868317
v 2.168257 2.975992 -2.141257
v 1.522548 2.917972 -2.141257
v 2.194699 2.787921 -2.141257
v 2.306756 1.990878 -2.141257
v 1.667470 1.999565 -2.141257
v 1.546582 2.742636 -2.141257
v 2.184268 1.184268 -2.141257
v 2.156660 1.002458 -2.141257
v 1.522548 1.081158 -2.141257
v 1.545704 1.250090 -2.141257
v 2.156660 1.002458 -7.868317
v 1.522548 1.081158 -7.868317
v 1.704594 1.009433 -8.208858
v 1.803229 2.001081 -8.208858
v 1.698326 2.997910 -8.208858
v 1.558536 3.203903 -8.208858
v 1.561844 3.203903 -1.791143
v 1.696218 1.004073 -1.791143
v 1.536680 0.798259 -1.791143
v 1.700138 2.998015 -1.791143
v 1.797214 2.001081 -1.791143
v 1.535397 0.798259 -8.208858
v 1.879255 0.925961 -8.208858
v 1.698597 0.695186 -8.208858
v 1.891600 3.065806 -8.208858
v 2.002181 1.989703 -8.208858
v 1.737679 3.279891 -1.791143
v 1.742693 3.279891 -8.208858
v 1.883164 0.915581 -1.791143
v 2.000766 1.989703 -1.791143
v 1.889897 3.064082 -1.791143
v 1.701378 0.695186 -1.791143
v 1.700000 1.000000 -8.000000
v 1.800000 2.000000 -8.000000
v 1.800000 2.000000 -10.000000
v 1.700000 1.000000 -10.000000
v 1.700000 3.000000 -8.000000
v 1.700000 3.000000 -10.000000
v 1.000000 4.000000 -8.000000
v 1.000000 4.000000 -10.000000
v 0.718008 0.000000 -8.000000
v 0.718008 0.000000 -10.000000
v 0.000000 0.000000 -10.000000
v 0.000000 0.000000 -8.000000
v 0.000000 4.000000 -8.000000
v 0.000000 4.000000 -10.000000
v 1.123116 0.179765 -8.000000
v 1.123116 0.179765 -10.000000
v 1.880547 0.914308 -8.000000
v 1.880547 0.914308 -10.000000
v 1.999776 1.990541 -10.000000
v 1.999776 1.990541 -8.000000
v 1.889760 3.063175 -10.000000
v 1.889760 3.063175 -8.000000
v 1.101640 4.172247 -10.000000
v 1.101640 4.172247 -8.000000
v 1.055624 -0.083741 -8.000000
v 0.000000 -0.204432 -8.000000
v 0.000000 -0.204432 -10.000000
v 1.055624 -0.083741 -10.000000
v 0.000000 4.199945 -8.000046
v 0.000000 4.199945 -10.000046
v -1.700000 1.000000 -8.000000
v -1.700000 1.000000 -10.000000
v -1.800000 2.000000 -10.000000
v -1.800000 2.000000 -8.000000
v -1.700000 3.000000 -10.000000
v -1.700000 3.000000 -8.000000
v -1.000000 4.000000 -10.000000
v -1.000000 4.000000 -8.000000
v -0.718008 0.000000 -8.000000
v -0.718008 0.000000 -10.000000
v -1.123116 0.179765 -8.000000
v -1.123116 0.179765 -10.000000
v -1.880547 0.914308 -8.000000
v -1.999776 1.990541 -8.000000
v -1.999776 1.990541 -10.000000
v -1.880547 0.914308 -10.000000
v -1.889760 3.063175 -8.000000
v -1.889760 3.063175 -10.000000
v -1.101640 4.172247 -8.000000
v -1.101640 4.172247 -10.000000
v -1.055624 -0.083741 -8.000000
v -1.055624 -0.083741 -10.000000
v -1.055624 -0.083741 -0.000000
v -1.880547 0.914308 0.000000
v -1.880547 0.914308 -2.000000
v -1.055624 -0.083741 -2.000000
v 0.000000 4.199945 -0.000046
v 0.000000 4.199945 -2.000046
v -1.101640 4.172247 -2.000000
v -1.101640 4.172247 0.000000
v 0.000000 -0.204432 -2.000000
v 0.000000 -0.204432 -0.000000
v -1.889760 3.063175 0.000000
v -1.889760 3.063175 -2.000000
v -1.999776 1.990541 0.000000
v -1.999776 1.990541 -2.000000
v 1.055624 -0.083741 -0.000000
v 1.055624 -0.083741 -2.000000
v 1.880547 0.914308 -2.000000
v 1.880547 0.914308 0.000000
v 1.101640 4.172247 0.000000
v 1.101640 4.172247 -2.000000
v 1.889760 3.063175 0.000000
v 1.889760 3.063175 -2.000000
v 1.999776 1.990541 0.000000
v 1.999776 1.990541 -2.000000
v -1.123116 0.179765 0.000000
v -1.123116 0.179765 -2.000000
v -1.700000 1.000000 -2.000000
v -1.700000 1.000000 0.000000
v 0.000000 4.000000 0.000000
v -1.000000 4.000000 0.000000
v -1.000000 4.000000 -2.000000
v 0.000000 4.000000 -2.000000
v -0.718008 0.000000 0.000000
v 0.000000 0.000000 0.000000
v 0.000000 0.000000 -2.000000
v -0.718008 0.000000 -2.000000
v -1.700000 3.000000 0.000000
v -1.700000 3.000000 -2.000000
v -1.800000 2.000000 0.000000
v -1.800000 2.000000 -2.000000
v 1.123116 0.179765 0.000000
v 1.700000 1.000000 0.000000
v 1.700000 1.000000 -2.000000
v 1.123116 0.179765 -2.000000
v 1.000000 4.000000 -2.000000
v 1.000000 4.000000 0.000000
v 0.718008 0.000000 0.000000
v 0.718008 0.000000 -2.000000
v 1.700000 3.000000 0.000000
v 1.700000 3.000000 -2.000000
v 1.800000 2.000000 0.000000
v 1.800000 2.000000 -2.000000
vt 0.381222 0.643201
vt 0.382746 0.628197
vt 0.393063 0.645284
vt 0.383384 0.608180
vt 0.382371 0.602748
vt 0.404273 0.605974
vt 0.390166 0.425652
vt 0.456427 0.642097
vt 0.458526 0.626449
vt 0.469003 0.644942
vt 0.460365 0.605924
vt 0.459681 0.600037
vt 0.481878 0.604958
vt 0.469858 0.419384
vt 0.400181 0.650673
vt 0.394507 0.629193
vt 0.411435 0.613408
vt 0.401616 0.609999
vt 0.413669 0.611770
vt 0.413669 0.415177
vt 0.489355 0.612704
vt 0.478975 0.609268
vt 0.491613 0.610963
vt 0.476032 0.651051
vt 0.472217 0.628637
vt 0.484591 0.419791
vt 0.372314 0.648636
vt 0.370205 0.653851
vt 0.370022 0.605622
vt 0.375192 0.414661
vt 0.446482 0.602069
vt 0.446952 0.647126
vt 0.444957 0.651959
vt 0.457041 0.410170
vt 0.442488 0.598597
vt 0.366493 0.602870
vt 0.401715 0.630951
vt 0.398277 0.655639
vt 0.392644 0.649001
vt 0.380761 0.647265
vt 0.479891 0.630966
vt 0.449198 0.625812
vt 0.474038 0.655639
vt 0.468383 0.648443
vt 0.455883 0.645834
vt 0.533236 0.959057
vt 0.533236 0.930601
vt 0.589866 0.959057
vt 0.533236 0.902145
vt 0.589866 0.930601
vt 0.533236 0.867583
vt 0.589866 0.902145
vt 0.694653 0.994548
vt 0.638023 0.994548
vt 0.694653 0.974218
vt 0.533236 0.839268
vt 0.589866 0.839267
vt 0.533236 0.987450
vt 0.589865 0.987451
vt 0.226519 0.671418
vt 0.283148 0.671418
vt 0.226519 0.702077
vt 0.283148 0.702077
vt 0.226519 0.732608
vt 0.283148 0.732608
vt 0.226519 0.771132
vt 0.226518 0.634755
vt 0.226518 0.604671
vt 0.283148 0.634755
vt 0.226520 0.802335
vt 0.283150 0.802334
vt 0.533236 0.719479
vt 0.589865 0.719479
vt 0.533236 0.747935
vt 0.589865 0.747935
vt 0.533236 0.776390
vt 0.589866 0.776390
vt 0.533236 0.810953
vt 0.694653 0.953888
vt 0.638023 0.953888
vt 0.533236 0.691085
vt 0.589865 0.691085
vt 0.226519 0.933252
vt 0.226519 0.902592
vt 0.283149 0.933252
vt 0.226519 0.872062
vt 0.283149 0.902592
vt 0.226519 0.833537
vt 0.283149 0.872061
vt 0.226519 0.969915
vt 0.283149 0.969915
vt 0.226519 1.000000
vt 0.000000 0.969916
vt 0.000000 0.933252
vt 0.056630 0.969915
vt 0.000002 0.802334
vt 0.056631 0.802335
vt 0.000001 0.833537
vt 0.000000 1.000000
vt 0.000000 0.872061
vt 0.056630 0.872062
vt 0.000000 0.902592
vt 0.056630 0.902593
vt 0.056630 0.933252
vt 0.000001 0.634755
vt 0.056631 0.634755
vt 0.000001 0.671418
vt 0.000001 0.771132
vt 0.000001 0.604671
vt 0.000001 0.732608
vt 0.056630 0.732608
vt 0.000001 0.702077
vt 0.056631 0.702077
vt 0.056631 0.671418
vt 0.056630 0.833537
vt 0.056630 1.000000
vt 0.056630 0.771132
vt 0.056631 0.604671
vt 0.306718 0.691084
vt 0.363348 0.691085
vt 0.306718 0.719478
vt 0.306718 0.839268
vt 0.306718 0.810953
vt 0.363348 0.839268
vt 0.921170 0.953888
vt 0.921170 0.974218
vt 0.864541 0.953888
vt 0.306717 0.776390
vt 0.363348 0.776390
vt 0.306718 0.747934
vt 0.363348 0.747934
vt 0.363348 0.719478
vt 0.306718 0.987451
vt 0.306718 0.959057
vt 0.363348 0.987451
vt 0.306718 0.867582
vt 0.921170 0.994548
vt 0.864541 0.994549
vt 0.306717 0.902145
vt 0.363347 0.902145
vt 0.306718 0.930601
vt 0.363348 0.930601
vt 0.363348 0.959057
vt 0.363348 0.810953
vt 0.864541 0.974218
vt 0.363348 0.867583
vt 0.363348 1.000000
vt 0.306718 1.000000
vt 0.533236 1.000000
vt 0.363348 0.678536
vt 0.306718 0.678535
vt 0.533236 0.678536
vt 0.404828 0.425902
vt 0.491613 0.411392
vt 0.373860 0.628096
vt 0.589866 0.867582
vt 0.638023 0.974218
vt 0.283148 0.771132
vt 0.283148 0.604671
vt 0.589866 0.810953
vt 0.283148 0.833537
vt 0.283149 1.000000
vt 0.589865 1.000000
vt 0.589865 0.678536
vn 0.883999 -0.177465 0.432478
vn 0.922300 -0.005249 0.386395
vn -0.835017 0.258919 0.485427
vn 0.886074 0.163152 0.433851
vn 0.990753 0.135472 -0.001556
vn -0.921628 -0.322062 0.216468
vn 0.990081 0.140324 -0.003967
vn 0.883969 0.162603 -0.438307
vn 0.919980 -0.003143 -0.391919
vn -0.835047 -0.174200 -0.521836
vn 0.878964 -0.179510 -0.441786
vn 0.988372 -0.150975 0.017121
vn -0.902554 0.351634 -0.248421
vn 0.988525 -0.148503 -0.027284
vn -0.716486 0.386897 -0.580481
vn -0.723289 -0.000855 0.690542
vn -0.752843 -0.361082 -0.550315
vn -0.835688 -0.244362 0.491775
vn -0.912552 -0.201458 -0.355898
vn -0.912900 -0.197546 0.357197
vn -0.744833 0.363439 0.559586
vn -0.828242 0.182745 -0.529710
vn -0.898485 0.261917 0.352312
vn -0.757272 -0.335559 0.560302
vn -0.801508 0.001434 -0.597980
vn -0.901852 0.353923 0.247688
vn 0.807633 -0.488355 -0.330513
vn 0.671048 -0.723142 -0.163585
vn 0.812372 0.433751 -0.389758
vn 0.695889 0.696417 0.175335
vn 0.805145 -0.501582 0.316476
vn 0.816924 0.442416 0.370006
vn 0.667404 -0.730099 0.146720
vn 0.695742 0.696012 -0.177510
vn -0.992273 -0.003092 -0.124037
vn -0.895848 0.254229 -0.364449
vn -0.937687 0.001551 0.347478
vn 0.752962 -0.002591 0.658059
vn -0.923429 -0.317026 -0.216163
vn -0.903229 0.429159 0.000000
vn -1.000000 0.000000 -0.000000
vn -0.937191 0.348816 0.000000
vn -0.903873 -0.427801 -0.000000
vn -0.461806 -0.886959 0.000000
vn -0.937578 -0.347775 0.000000
vn -0.207282 0.978271 0.000000
vn -0.207306 0.978276 0.000000
vn 0.000000 1.000000 0.000000
vn 0.000000 -1.000000 0.000000
vn -0.634785 0.772668 0.000000
vn -0.634796 0.772680 0.000000
vn 0.877709 -0.479194 -0.000000
vn 0.920857 -0.389900 -0.000000
vn 0.999992 -0.004062 -0.000000
vn 0.999992 -0.004063 -0.000000
vn 0.901456 0.432871 0.000000
vn 0.935893 0.352284 0.000000
vn 0.469771 0.882748 0.000000
vn 0.476730 -0.879025 0.000000
vn 0.000000 -0.999969 0.000000
vn 0.476756 -0.879036 -0.000000
vn 0.937162 0.348796 0.000000
vn 0.937191 0.348817 0.000000
vn 1.000000 0.000000 0.000000
vn 0.937559 -0.347758 0.000000
vn 0.937578 -0.347775 0.000000
vn 0.461806 -0.886959 0.000000
vn 0.207282 0.978271 0.000000
vn 0.207306 0.978276 0.000000
vn 0.634785 0.772668 0.000000
vn 0.634796 0.772680 0.000000
vn -0.920835 -0.389874 0.000000
vn -0.999969 -0.004059 0.000000
vn -0.920857 -0.389900 -0.000000
vn -0.935881 0.352275 0.000000
vn -0.999992 -0.004063 -0.000000
vn -0.469771 0.882748 0.000000
vn -0.935893 0.352284 0.000000
vn -0.476730 -0.879025 0.000000
vn -0.476756 -0.879036 -0.000000
vn 0.000000 0.999969 0.000000
vn -0.469803 0.882771 0.000000
vn -0.999992 -0.004062 0.000000
vn 0.469803 0.882771 0.000000
vn 0.461810 -0.886979 0.000000
vn -0.937191 0.348817 0.000000
vn -0.461810 -0.886979 0.000000
vn 0.745369 -0.005089 -0.666633
vn 0.469791 0.882778 0.000000
vn -0.469791 0.882778 0.000000
s 1
f 1/1/1 2/2/2 4/3/3
f 5/4/4 6/5/5 7/6/6
f 6/5/5 9/7/7 7/6/6
f 11/8/8 12/9/9 14/10/10
f 15/11/11 16/12/12 17/13/13
f 16/12/12 19/14/14 17/13/13
f 21/15/15 4/3/3 3/16/16
f 23/17/17 8/18/18 24/19/19
f 24/19/19 7/6/6 25/20/20
f 26/21/21 18/22/22 27/23/23
f 28/24/24 14/10/10 13/25/25
f 27/23/23 17/13/13 20/26/26
f 31/27/27 1/1/1 32/28/28
f 33/29/29 5/4/4 2/2/2
f 35/30/30 9/7/7 6/5/5
f 37/31/31 15/11/11 12/9/9
f 39/32/32 11/8/8 35/33/30
f 32/34/28 19/14/14 40/35/33
f 36/36/34 6/5/5 5/4/4
f 22/37/35 3/16/16 23/17/17
f 2/2/2 5/4/4 8/18/18
f 1/1/1 31/27/27 2/2/2
f 30/38/36 20/39/26 4/3/3
f 19/40/14 1/1/1 20/39/26
f 40/35/33 16/12/12 15/11/11
f 29/41/37 13/25/25 26/21/21
f 12/9/9 15/11/11 18/22/22
f 38/42/38 12/9/9 39/32/32
f 25/43/20 10/44/39 14/10/10
f 9/45/7 11/8/8 10/44/39
f 41/46/40 42/47/41 44/48/42
f 42/47/41 45/49/43 43/50/41
f 45/49/43 47/51/44 46/52/45
f 49/53/46 50/54/47 52/55/48
f 53/56/49 54/57/49 47/51/44
f 55/58/50 41/46/40 56/59/51
f 57/60/52 58/61/53 60/62/54
f 60/62/54 59/63/55 62/64/56
f 62/64/56 61/65/57 64/66/58
f 65/67/59 66/68/60 68/69/61
f 69/70/48 64/66/58 70/71/48
f 65/67/59 68/69/61 57/60/52
f 71/72/62 72/73/63 74/74/64
f 74/74/64 73/75/64 76/76/65
f 76/76/65 75/77/66 78/78/67
f 79/79/68 52/55/48 80/80/69
f 53/56/49 78/78/67 54/57/49
f 81/81/70 82/82/71 71/72/62
f 83/83/72 84/84/73 86/85/74
f 84/84/73 87/86/75 85/87/76
f 87/86/75 89/88/77 88/89/78
f 91/90/79 92/91/80 66/92/60
f 69/70/48 70/71/48 89/88/77
f 91/90/79 83/83/72 92/91/80
f 93/93/80 94/94/74 96/95/79
f 97/96/48 98/97/81 100/98/82
f 93/93/80 96/95/79 102/99/49
f 103/100/78 100/98/82 104/101/75
f 105/102/83 103/100/78 106/103/73
f 94/94/74 105/102/83 95/104/72
f 107/105/61 108/106/59 110/107/53
f 97/96/48 111/108/84 98/97/81
f 107/105/61 102/109/49 108/106/59
f 113/110/57 114/111/56 111/108/84
f 115/112/54 116/113/55 113/110/57
f 110/107/53 109/114/52 115/112/54
f 96/95/79 95/104/72 91/90/79
f 98/97/81 69/70/48 99/115/77
f 96/95/79 91/90/79 101/116/60
f 104/101/75 99/115/77 87/86/75
f 106/103/73 104/101/75 84/84/73
f 95/104/72 106/103/73 83/83/72
f 108/106/59 65/67/59 109/114/52
f 98/97/81 112/117/58 69/70/48
f 108/106/59 101/118/60 65/67/59
f 114/111/56 62/64/56 112/117/58
f 117/119/71 118/120/70 120/121/63
f 121/122/49 122/123/85 124/124/49
f 125/125/69 126/126/48 128/127/68
f 129/128/66 130/129/65 122/123/85
f 131/130/64 132/131/64 129/128/66
f 120/121/63 119/132/62 131/130/64
f 133/133/51 134/134/86 136/135/50
f 121/122/49 124/124/49 138/136/87
f 139/137/47 140/138/46 126/126/48
f 141/139/45 138/136/87 142/140/43
f 143/141/41 141/139/45 144/142/41
f 134/134/86 143/141/41 135/143/40
f 118/120/70 81/81/70 119/132/62
f 124/124/49 123/144/67 53/56/49
f 128/127/68 127/145/48 79/79/68
f 130/129/65 76/76/65 123/144/67
f 132/131/64 74/74/64 130/129/65
f 119/132/62 71/72/62 132/131/64
f 136/135/50 135/143/40 55/58/50
f 124/124/49 53/56/49 137/146/44
f 140/138/46 49/53/46 127/145/48
f 142/140/43 137/146/44 45/49/43
f 136/135/50 55/58/50 140/147/46
f 133/133/51 136/135/50 139/148/47
f 55/58/50 56/59/51 49/149/46
f 118/120/70 128/150/68 81/81/70
f 117/119/71 125/151/69 118/120/70
f 81/81/70 79/152/68 82/82/71
f 2/2/2 3/16/16 4/3/3
f 8/18/18 5/4/4 7/6/6
f 9/7/7 10/153/39 7/6/6
f 12/9/9 13/25/25 14/10/10
f 18/22/22 15/11/11 17/13/13
f 19/14/14 20/26/26 17/13/13
f 22/37/35 21/15/15 3/16/16
f 8/18/18 7/6/6 24/19/19
f 7/6/6 10/153/39 25/20/20
f 18/22/22 17/13/13 27/23/23
f 29/41/37 28/24/24 13/25/25
f 30/154/36 27/23/23 20/26/26
f 1/1/1 19/40/14 32/28/28
f 34/155/88 33/29/29 2/2/2
f 36/36/34 35/30/30 6/5/5
f 38/42/38 37/31/31 12/9/9
f 11/8/8 9/45/7 35/33/30
f 19/14/14 16/12/12 40/35/33
f 33/29/29 36/36/34 5/4/4
f 3/16/16 8/18/18 23/17/17
f 3/16/16 2/2/2 8/18/18
f 31/27/27 34/155/88 2/2/2
f 21/15/15 30/38/36 4/3/3
f 1/1/1 4/3/3 20/39/26
f 37/31/31 40/35/33 15/11/11
f 13/25/25 18/22/22 26/21/21
f 13/25/25 12/9/9 18/22/22
f 12/9/9 11/8/8 39/32/32
f 28/24/24 25/43/20 14/10/10
f 11/8/8 14/10/10 10/44/39
f 42/47/41 43/50/41 44/48/42
f 45/49/43 46/52/45 43/50/41
f 47/51/44 48/156/87 46/52/45
f 50/54/47 51/157/48 52/55/48
f 54/57/49 48/156/87 47/51/44
f 41/46/40 44/48/42 56/59/51
f 58/61/53 59/63/55 60/62/54
f 59/63/55 61/65/57 62/64/56
f 61/65/57 63/158/89 64/66/58
f 66/68/60 67/159/49 68/69/61
f 64/66/58 63/158/89 70/71/48
f 68/69/61 58/61/53 57/60/52
f 72/73/63 73/75/64 74/74/64
f 73/75/64 75/77/66 76/76/65
f 75/77/66 77/160/85 78/78/67
f 52/55/48 51/157/48 80/80/69
f 78/78/67 77/160/85 54/57/49
f 82/82/71 72/73/63 71/72/62
f 84/84/73 85/87/76 86/85/74
f 87/86/75 88/89/78 85/87/76
f 89/88/77 90/161/90 88/89/78
f 92/91/80 67/162/49 66/92/60
f 70/71/48 90/161/90 89/88/77
f 83/83/72 86/85/74 92/91/80
f 94/94/74 95/104/72 96/95/79
f 98/97/81 99/115/77 100/98/82
f 96/95/79 101/116/60 102/99/49
f 100/98/82 99/115/77 104/101/75
f 103/100/78 104/101/75 106/103/73
f 105/102/83 106/103/73 95/104/72
f 108/106/59 109/114/52 110/107/53
f 111/108/84 112/117/58 98/97/81
f 102/109/49 101/118/60 108/106/59
f 114/111/56 112/117/58 111/108/84
f 116/113/55 114/111/56 113/110/57
f 109/114/52 116/113/55 115/112/54
f 95/104/72 83/83/72 91/90/79
f 69/70/48 89/88/77 99/115/77
f 91/90/79 66/92/60 101/116/60
f 99/115/77 89/88/77 87/86/75
f 104/101/75 87/86/75 84/84/73
f 106/103/73 84/84/73 83/83/72
f 65/67/59 57/60/52 109/114/52
f 112/117/58 64/66/58 69/70/48
f 101/118/60 66/68/60 65/67/59
f 62/64/56 64/66/58 112/117/58
f 118/120/70 119/132/62 120/121/63
f 122/123/85 123/144/67 124/124/49
f 126/126/48 127/145/48 128/127/68
f 130/129/65 123/144/67 122/123/85
f 132/131/64 130/129/65 129/128/66
f 119/132/62 132/131/64 131/130/64
f 134/134/86 135/143/40 136/135/50
f 124/124/49 137/146/44 138/136/87
f 140/138/46 127/145/48 126/126/48
f 138/136/87 137/146/44 142/140/43
f 141/139/45 142/140/43 144/142/41
f 143/141/41 144/142/41 135/143/40
f 81/81/70 71/72/62 119/132/62
f 123/144/67 78/78/67 53/56/49
f 127/145/48 52/55/48 79/79/68
f 76/76/65 78/78/67 123/144/67
f 74/74/64 76/76/65 130/129/65
f 71/72/62 74/74/64 132/131/64
f 135/143/40 41/46/40 55/58/50
f 53/56/49 47/51/44 137/146/44
f 49/53/46 52/55/48 127/145/48
f 137/146/44 47/51/44 45/49/43
f 55/58/50 49/149/46 140/147/46
f 136/135/50 140/147/46 139/148/47
f 56/59/51 50/163/47 49/149/46
f 128/150/68 79/152/68 81/81/70
f 125/151/69 128/150/68 118/120/70
f 79/152/68 80/164/69 82/82/71
