# Blender v2.69 (sub 0) OBJ File: 'Station.blend'
# www.blender.org
usemtl StationMaterial
v 1.996946 1.990396 -0.500000
v 2.199755 1.988690 0.000000
v 2.068602 0.804834 0.000000
v 1.882452 0.915191 -0.500000
v 1.097855 4.170018 -0.500000
v 1.211803 4.388567 0.000000
v 2.078735 3.168588 0.000000
v 1.885422 3.062005 -0.500000
v 0.000000 4.197689 -0.500046
v 0.000000 4.419035 0.000000
v 0.000000 -0.202480 -0.500000
v 1.059986 -0.081904 -0.500000
v 1.161186 -0.293020 -0.000000
v 0.000000 -0.425780 -0.000000
v -1.996946 1.990396 -0.500000
v -1.882452 0.915191 -0.500000
v -2.068601 0.804834 0.000000
v -2.199754 1.988690 0.000000
v -1.097855 4.170018 -0.500000
v -1.885421 3.062005 -0.500000
v -2.078736 3.168588 0.000000
v -1.211804 4.388567 0.000000
v -1.161187 -0.293020 -0.000000
v -1.059987 -0.081904 -0.500000
v 1.996946 1.990396 0.500000
v 1.882452 0.915191 0.500000
v 1.097855 4.170018 0.500000
v 1.885422 3.062005 0.500000
v 0.000000 4.197689 0.500046
v 0.000000 -0.202480 0.500000
v 1.059986 -0.081904 0.500000
v -1.996946 1.990396 0.500000
v -1.882452 0.915191 0.500000
v -1.097855 4.170018 0.500000
v -1.885421 3.062005 0.500000
v -1.059987 -0.081904 0.500000
v 1.418701 2.909300 -0.200000
v 1.526861 1.981282 -0.200000
v 1.526861 1.981282 0.000000
v 1.418701 2.909300 0.000000
v 0.000000 0.036711 -0.200000
v 0.000000 0.036711 0.000000
v 0.666325 0.036711 0.000000
v 0.666325 0.036711 -0.200000
v 1.036152 0.292071 0.000000
v 1.036152 0.292071 -0.200000
v 1.434059 1.053264 -0.200000
v 1.434059 1.053264 0.000000
v 0.659353 3.837319 -0.200000
v 0.659353 3.837319 0.000000
v 0.000000 3.837319 0.000000
v 0.000000 3.837319 -0.200000
v 1.003857 4.009430 -0.369966
v 0.000000 4.009430 -0.369966
v 1.701981 3.004146 -0.369966
v 1.802509 1.998863 -0.369966
v 1.705193 0.993579 -0.369966
v 0.717993 -0.011705 -0.369966
v 1.131763 0.169010 -0.369966
v 0.000000 -0.011705 -0.369966
v 0.593867 3.919788 -0.100000
v 0.858582 3.933223 -0.100000
v 1.584068 2.961810 -0.100000
v 1.068567 2.782678 -0.100000
v 1.687071 1.985919 -0.100000
v 1.234264 2.066529 -0.100000
v 1.570635 1.027941 -0.100000
v 1.252178 1.354858 -0.100000
v 1.387608 0.624321 -0.100000
v 0.999165 0.498223 -0.100000
v 1.007694 0.158333 -0.100000
v 0.643345 0.024810 -0.100000
v -1.418701 2.909300 -0.200000
v -1.418701 2.909300 0.000000
v -1.526862 1.981282 0.000000
v -1.526862 1.981282 -0.200000
v -0.666325 0.036711 -0.200000
v -0.666325 0.036711 0.000000
v -1.036151 0.292071 -0.200000
v -1.036151 0.292071 0.000000
v -1.434060 1.053264 -0.200000
v -1.434060 1.053264 0.000000
v -0.659353 3.837319 -0.200000
v -0.659353 3.837319 0.000000
v -1.003857 4.009430 -0.369966
v -1.701981 3.004146 -0.369966
v -1.802510 1.998863 -0.369966
v -1.705193 0.993579 -0.369966
v -0.717993 -0.011705 -0.369966
v -1.131763 0.169010 -0.369966
v -1.068568 2.782678 0.100000
v -1.234265 2.066529 0.100000
v -1.234265 2.066529 -0.100000
v -1.068568 2.782678 -0.100000
v -1.387607 0.624321 -0.100000
v -1.570634 1.027941 -0.100000
v -1.252179 1.354858 -0.100000
v -0.999165 0.498223 -0.100000
v 1.418701 2.909300 0.200000
v 1.526861 1.981282 0.200000
v 0.000000 0.036711 0.200000
v 0.666325 0.036711 0.200000
v 1.036152 0.292071 0.200000
v 1.434059 1.053264 0.200000
v 0.659353 3.837319 0.200000
v 0.000000 3.837319 0.200000
v 1.003857 4.009430 0.369966
v 0.000000 4.009430 0.369966
v 1.701981 3.004146 0.369966
v 1.802509 1.998863 0.369966
v 1.705193 0.993579 0.369966
v 0.717993 -0.011705 0.369966
v 1.131763 0.169010 0.369966
v 0.000000 -0.011705 0.369966
v -1.418701 2.909300 0.200000
v -1.526862 1.981282 0.200000
v -0.666325 0.036711 0.200000
v -1.036151 0.292071 0.200000
v -1.434060 1.053264 0.200000
v -0.659353 3.837319 0.200000
v -1.003857 4.009430 0.369966
v -1.701981 3.004146 0.369966
v -1.802510 1.998863 0.369966
v -1.705193 0.993579 0.369966
v -0.717993 -0.011705 0.369966
v -1.131763 0.169010 0.369966
v -1.400565 0.590251 -0.369966
v 1.400564 0.590251 -0.369966
v -1.400565 0.590251 0.369966
v 1.400564 0.590251 0.369966
v 1.252178 1.354858 0.100000
v 1.234264 2.066529 0.100000
v 0.643345 0.024810 0.100000
v 0.999165 0.498223 0.100000
v 1.068567 2.782678 0.100000
v 0.593867 3.919788 0.100000
v -0.593867 3.919788 -0.100000
v -1.584069 2.961810 -0.100000
v -0.858582 3.933223 -0.100000
v -1.687070 1.985919 -0.100000
v -0.999165 0.498223 0.100000
v -0.643345 0.024810 0.100000
v -0.643345 0.024810 -0.100000
v -1.252179 1.354858 0.100000
v -1.007694 0.158333 -0.100000
v 1.584068 2.961810 0.100000
v 0.858582 3.933223 0.100000
v 1.687071 1.985919 0.100000
v 1.570635 1.027941 0.100000
v 1.387608 0.624321 0.100000
v 1.007694 0.158333 0.100000
v -0.593867 3.919788 0.100000
v -0.858582 3.933223 0.100000
v -1.584069 2.961810 0.100000
v -1.687070 1.985919 0.100000
v -1.570634 1.027941 0.100000
v -1.387607 0.624321 0.100000
v -1.007694 0.158333 0.100000
vt 0.143235 0.044340
vt 0.143208 0.023504
vt 0.099017 0.023504
vt 0.241398 0.045932
vt 0.241513 0.023504
vt 0.185856 0.044658
vt 0.288425 0.046543
vt 0.187368 0.023504
vt 0.001562 0.047008
vt 0.047443 0.046078
vt 0.046876 0.023504
vt 0.100466 0.044535
vt 0.433616 0.044340
vt 0.476385 0.044535
vt 0.477833 0.023504
vt 0.335453 0.045932
vt 0.390994 0.044658
vt 0.335338 0.023504
vt 0.389483 0.023504
vt 0.575289 0.047008
vt 0.576851 0.023504
vt 0.529974 0.023504
vt 0.529408 0.046078
vt 0.143235 0.002668
vt 0.100466 0.002472
vt 0.241398 0.001076
vt 0.185856 0.002349
vt 0.288425 0.000464
vt 0.001562 0.000000
vt 0.000000 0.023504
vt 0.047443 0.000929
vt 0.433616 0.002668
vt 0.433643 0.023504
vt 0.335453 0.001076
vt 0.390994 0.002349
vt 0.575289 0.000000
vt 0.529408 0.000929
vt 0.476385 0.002472
vt 0.324398 0.565665
vt 0.323994 0.593043
vt 0.318422 0.565600
vt 0.532675 0.631637
vt 0.532675 0.637300
vt 0.513809 0.631637
vt 0.323441 0.655631
vt 0.318490 0.655480
vt 0.324064 0.643514
vt 0.324031 0.619442
vt 0.318461 0.619404
vt 0.318441 0.593012
vt 0.324942 0.527269
vt 0.318399 0.527295
vt 0.324025 0.506661
vt 0.335057 0.534810
vt 0.334042 0.566359
vt 0.332550 0.592800
vt 0.332775 0.619070
vt 0.328015 0.655585
vt 0.330307 0.644317
vt 0.532675 0.626633
vt 0.512346 0.626633
vt 0.971449 0.856439
vt 0.963950 0.856724
vt 0.943761 0.828959
vt 0.958420 0.824074
vt 0.941196 0.801293
vt 0.953987 0.803738
vt 0.944837 0.774212
vt 0.950164 0.762850
vt 0.961207 0.759419
vt 0.971449 0.746142
vt 0.324385 0.447623
vt 0.318402 0.447689
vt 0.323975 0.420215
vt 0.551543 0.631636
vt 0.323416 0.357540
vt 0.324040 0.369674
vt 0.318458 0.357692
vt 0.324010 0.393781
vt 0.318433 0.393820
vt 0.318416 0.420246
vt 0.324937 0.486046
vt 0.318390 0.486023
vt 0.335057 0.478499
vt 0.329795 0.506661
vt 0.334037 0.446926
vt 0.332541 0.420457
vt 0.327997 0.357587
vt 0.330293 0.368870
vt 0.553006 0.626632
vt 0.963497 0.955228
vt 0.963498 0.934413
vt 0.969161 0.955228
vt 0.969428 0.714561
vt 0.964099 0.703199
vt 0.980471 0.717991
vt 0.312444 0.565673
vt 0.312889 0.593051
vt 0.532675 0.642963
vt 0.513809 0.642962
vt 0.313540 0.655639
vt 0.312897 0.643524
vt 0.312892 0.619450
vt 0.311856 0.527276
vt 0.312755 0.506664
vt 0.301748 0.534828
vt 0.306984 0.506666
vt 0.302802 0.566380
vt 0.304332 0.592821
vt 0.308965 0.655600
vt 0.306655 0.644336
vt 0.532675 0.647967
vt 0.512346 0.647966
vt 0.312419 0.447618
vt 0.312857 0.420209
vt 0.551543 0.642963
vt 0.313501 0.357533
vt 0.312858 0.369666
vt 0.312855 0.393774
vt 0.311844 0.486044
vt 0.301725 0.478492
vt 0.302767 0.446913
vt 0.304289 0.420441
vt 0.304098 0.394135
vt 0.308920 0.357572
vt 0.306606 0.368853
vt 0.553006 0.647967
vt 0.942952 0.950506
vt 0.942951 0.930350
vt 0.948614 0.950506
vt 0.948611 0.992566
vt 0.942948 0.992565
vt 0.948613 0.975797
vt 0.942949 0.909536
vt 0.942948 0.874645
vt 0.948612 0.909536
vt 0.948614 0.930349
vt 0.990719 0.620976
vt 0.977684 0.653339
vt 0.963025 0.648451
vt 0.973249 0.673674
vt 0.960458 0.676118
vt 0.972997 0.693829
vt 0.942950 0.975797
vt 0.969158 0.888969
vt 0.963496 0.888969
vt 0.969157 0.872203
vt 0.969161 0.934413
vt 0.969160 0.914256
vt 0.963498 0.914256
vt 0.990719 0.731265
vt 0.931280 0.748968
vt 0.918247 0.781333
vt 0.903588 0.776446
vt 0.913813 0.801667
vt 0.901022 0.804113
vt 0.913562 0.821823
vt 0.904664 0.831194
vt 0.909991 0.842555
vt 0.921034 0.845985
vt 0.931280 0.859260
vt 0.959816 0.730978
vt 0.952316 0.731264
vt 0.932122 0.703504
vt 0.946781 0.698616
vt 0.929553 0.675837
vt 0.942344 0.678281
vt 0.933194 0.648756
vt 0.938522 0.637394
vt 0.949567 0.633964
vt 0.959816 0.620690
vt 0.969159 0.990124
vt 0.963495 0.990124
vt 0.330282 0.631375
vt 0.306611 0.381814
vt 0.330269 0.381831
vt 0.332766 0.394153
vt 0.306659 0.631394
vt 0.304146 0.619092
vt 0.288425 0.023504
vt 0.513809 0.637300
vt 0.318480 0.643498
vt 0.318391 0.506662
vt 0.953736 0.783582
vt 0.961086 0.749793
vt 0.551543 0.637300
vt 0.318449 0.369691
vt 0.948611 0.874645
vt 0.983220 0.620690
vt 0.963495 0.872203
vt 0.980353 0.727618
vt 0.923781 0.748683
vt 0.920916 0.855611
vt 0.942093 0.658126
vt 0.949449 0.624337
vn 0.926949 -0.002941 -0.375176
vn 0.999969 -0.004151 0.000000
vn 0.917905 -0.396771 0.000000
vn 0.422398 0.791269 -0.442124
vn 0.468978 0.883175 0.000000
vn 0.860833 0.314674 -0.399934
vn 0.000000 0.914401 -0.404809
vn 0.932646 0.360729 0.000000
vn 0.000000 -0.913206 -0.407499
vn 0.436796 -0.793633 -0.423505
vn 0.473006 -0.881039 0.000000
vn 0.851364 -0.347142 -0.393283
vn -0.926949 -0.002942 -0.375175
vn -0.851365 -0.347142 -0.393281
vn -0.917905 -0.396771 0.000000
vn -0.422397 0.791268 -0.442125
vn -0.860832 0.314674 -0.399936
vn -0.468978 0.883175 0.000000
vn -0.932646 0.360729 0.000000
vn 0.000000 -1.000000 0.000000
vn -0.473006 -0.881039 0.000000
vn -0.436797 -0.793633 -0.423505
vn 0.926949 -0.002941 0.375176
vn 0.851364 -0.347142 0.393283
vn 0.422398 0.791269 0.442124
vn 0.860833 0.314673 0.399934
vn -0.000000 0.914401 0.404809
vn 0.000000 -0.913206 0.407499
vn 0.436796 -0.793633 0.423505
vn -0.926949 -0.002942 0.375175
vn -0.999969 -0.004151 0.000000
vn -0.422397 0.791268 0.442125
vn -0.860832 0.314674 0.399936
vn -0.436796 -0.793633 0.423505
vn -0.851365 -0.347142 0.393281
vn -0.769768 -0.331584 -0.545366
vn -0.864040 -0.003845 -0.503342
vn -0.920682 -0.390240 0.000000
vn 0.000000 0.990387 -0.138279
vn 0.000000 1.000000 0.000000
vn -0.241493 0.950468 -0.195532
vn -0.297555 0.954680 0.000000
vn -0.700003 0.606372 -0.377148
vn -0.821345 0.275430 -0.499496
vn -0.958037 0.286569 0.000000
vn -0.999939 -0.008148 0.000000
vn -0.289804 -0.803156 -0.520493
vn -0.428205 -0.903653 0.000000
vn 0.000000 -0.922666 -0.385571
vn -0.255509 -0.370451 -0.893018
vn -0.451052 -0.181078 -0.873935
vn -0.524326 -0.001846 -0.851516
vn -0.493281 0.181668 -0.850688
vn -0.218295 0.919053 -0.328158
vn -0.539153 0.531172 -0.653582
vn 0.000000 0.961741 -0.273959
vn -0.727459 -0.303686 -0.615287
vn 0.000000 0.000000 -1.000000
vn -0.654103 -0.210547 -0.726493
vn -0.677419 -0.085971 -0.730522
vn -0.591571 0.297403 -0.749352
vn -0.750671 0.564208 -0.343747
vn 0.769768 -0.331584 -0.545366
vn 0.920682 -0.390240 0.000000
vn 0.864040 -0.003845 -0.503342
vn 0.241493 0.950468 -0.195532
vn 0.700003 0.606372 -0.377148
vn 0.297555 0.954680 0.000000
vn 0.821345 0.275430 -0.499496
vn 0.958037 0.286569 0.000000
vn 0.999939 -0.008148 0.000000
vn 0.289804 -0.803156 -0.520493
vn 0.428205 -0.903653 0.000000
vn 0.255509 -0.370451 -0.893018
vn 0.000000 -0.702659 -0.711527
vn 0.451052 -0.181079 -0.873935
vn 0.524326 -0.001846 -0.851516
vn 0.218295 0.919053 -0.328158
vn 0.539153 0.531172 -0.653584
vn 0.654103 -0.210547 0.726493
vn 0.677419 -0.085971 0.730522
vn 0.654103 -0.210547 -0.726493
vn 0.591571 0.297403 -0.749352
vn -0.769768 -0.331584 0.545366
vn -0.864040 -0.003845 0.503342
vn 0.000000 0.990387 0.138279
vn -0.241493 0.950468 0.195532
vn -0.700003 0.606372 0.377148
vn -0.821345 0.275430 0.499496
vn -0.289804 -0.803156 0.520493
vn 0.000000 -0.922666 0.385571
vn -0.255509 -0.370451 0.893018
vn 0.000000 -0.702659 0.711527
vn -0.451052 -0.181078 0.873935
vn -0.524326 -0.001846 0.851516
vn -0.218295 0.919053 0.328158
vn -0.539154 0.531172 0.653582
vn 0.000000 0.961741 0.273959
vn 0.769768 -0.331584 0.545366
vn 0.864040 -0.003845 0.503342
vn 0.241493 0.950468 0.195532
vn 0.700003 0.606372 0.377148
vn 0.821345 0.275430 0.499496
vn 0.289804 -0.803156 0.520493
vn 0.255509 -0.370451 0.893018
vn 0.451052 -0.181079 0.873935
vn 0.524326 -0.001846 0.851516
vn 0.493282 0.181668 0.850688
vn 0.218295 0.919053 0.328158
vn 0.539153 0.531171 0.653584
vn -0.662618 0.087283 0.743828
vn -0.677419 -0.085971 0.730522
vn -0.662618 0.087283 -0.743828
vn -0.750671 0.564208 0.343748
vn -0.654103 -0.210547 0.726493
vn -0.727459 -0.303686 0.615287
vn 0.727459 -0.303687 -0.615286
vn 0.677419 -0.085971 -0.730522
vn 0.662618 0.087283 -0.743828
vn -0.591571 0.297403 0.749352
vn 0.591571 0.297403 0.749352
vn 0.750671 0.564208 -0.343747
vn 0.662618 0.087283 0.743828
vn -0.000000 -0.000000 1.000000
vn 0.727459 -0.303687 0.615286
vn 0.750671 0.564208 0.343747
vn -0.500277 0.330042 -0.800497
vn 0.500276 0.330042 0.800497
vn 0.500276 0.330043 -0.800497
vn 0.493282 0.181669 -0.850688
vn -0.500277 0.330042 0.800497
vn -0.493281 0.181668 0.850688
vn -0.749107 0.662435 0.000000
vn 0.749107 0.662435 0.000000
s 1
f 1/1/1 2/2/2 3/3/3
f 5/4/4 6/5/5 8/6/6
f 5/4/4 9/7/7 6/5/5
f 2/2/2 1/1/1 7/8/8
f 11/9/9 12/10/10 13/11/11
f 4/12/12 3/3/3 13/11/11
f 15/13/13 16/14/14 17/15/15
f 19/16/16 20/17/17 22/18/18
f 19/16/16 22/18/18 9/7/7
f 20/17/17 15/13/13 21/19/19
f 11/20/9 14/21/20 23/22/21
f 16/14/14 24/23/22 23/22/21
f 25/24/23 26/25/24 3/3/3
f 27/26/25 28/27/26 6/5/5
f 27/26/25 6/5/5 29/28/27
f 28/27/26 25/24/23 7/8/8
f 30/29/28 14/30/20 13/11/11
f 26/25/24 31/31/29 13/11/11
f 32/32/30 18/33/31 17/15/15
f 34/34/32 22/18/18 35/35/33
f 34/34/32 29/28/27 22/18/18
f 35/35/33 21/19/19 32/32/30
f 30/36/28 36/37/34 23/22/21
f 33/38/35 17/15/15 23/22/21
f 37/39/36 38/40/37 40/41/38
f 41/42/39 42/43/40 44/44/41
f 44/45/41 43/46/42 46/47/43
f 47/48/44 46/47/43 48/49/45
f 38/40/37 47/48/44 39/50/46
f 49/51/47 37/39/36 50/52/48
f 49/51/47 50/52/48 52/53/49
f 53/54/50 49/51/47 52/53/49
f 37/39/36 49/51/47 55/55/51
f 56/56/52 57/57/53 47/48/44
f 58/58/54 44/45/41 59/59/55
f 60/60/56 41/42/39 58/61/54
f 38/40/37 37/39/36 55/55/51
f 61/62/57 62/63/58 63/64/58
f 64/65/59 63/64/58 65/66/58
f 66/67/60 65/66/58 67/68/58
f 69/69/58 70/70/61 67/68/58
f 70/70/61 69/69/58 72/71/62
f 73/72/63 74/73/64 76/74/65
f 41/42/39 77/75/66 42/43/40
f 77/76/66 79/77/67 78/78/68
f 81/79/69 82/80/70 79/77/67
f 76/74/65 75/81/71 81/79/69
f 83/82/72 84/83/73 73/72/63
f 83/82/72 52/53/49 84/83/73
f 85/84/74 54/85/75 52/53/49
f 85/84/74 83/82/72 86/86/76
f 87/87/77 76/74/65 81/79/69
f 89/88/78 90/89/79 77/76/66
f 60/60/56 89/90/78 41/42/39
f 86/86/76 73/72/63 76/74/65
f 91/91/80 92/92/81 94/93/82
f 95/94/58 96/95/58 98/96/83
f 99/97/84 40/41/38 100/98/85
f 101/99/86 102/100/87 42/43/40
f 102/101/87 103/102/88 43/46/42
f 104/103/89 48/49/45 103/102/88
f 100/98/85 39/50/46 104/103/89
f 105/104/90 50/52/48 99/97/84
f 105/104/90 106/105/91 50/52/48
f 107/106/92 108/107/93 106/105/91
f 107/106/92 105/104/90 109/108/94
f 110/109/95 100/98/85 104/103/89
f 112/110/96 113/111/97 102/101/87
f 114/112/98 112/113/96 101/99/86
f 109/108/94 99/97/84 100/98/85
f 115/114/99 116/115/100 74/73/64
f 101/99/86 42/43/40 117/116/101
f 117/117/101 78/78/68 118/118/102
f 119/119/103 118/118/102 82/80/70
f 116/115/100 119/119/103 75/81/71
f 120/120/104 115/114/99 84/83/73
f 120/120/104 84/83/73 106/105/91
f 121/121/105 120/120/104 106/105/91
f 121/121/105 122/122/106 120/120/104
f 123/123/107 124/124/108 119/119/103
f 125/125/109 117/117/101 126/126/110
f 114/112/98 101/99/86 125/127/109
f 122/122/106 123/123/107 116/115/100
f 131/128/111 132/129/112 68/130/113
f 72/131/62 133/132/114 70/133/61
f 135/134/115 136/135/116 64/136/59
f 66/137/60 132/129/112 64/136/59
f 137/138/117 94/139/82 138/140/58
f 94/139/82 93/141/118 140/142/58
f 93/141/118 97/143/119 96/95/58
f 134/144/120 131/128/111 70/133/61
f 98/145/83 141/146/121 143/147/122
f 93/148/118 92/92/81 97/149/119
f 97/149/119 144/150/123 98/145/83
f 98/96/83 143/151/122 95/94/58
f 136/152/116 135/153/115 146/154/124
f 135/153/115 132/155/112 148/156/124
f 132/155/112 131/157/111 149/158/124
f 150/159/124 149/158/124 134/160/120
f 134/160/120 133/161/114 150/159/124
f 152/162/125 153/163/124 154/164/124
f 91/165/80 154/164/124 155/166/124
f 92/167/81 155/166/124 156/168/124
f 157/169/124 141/170/121 156/168/124
f 141/170/121 157/169/124 142/171/126
f 137/172/117 152/173/125 94/93/82
f 57/57/53 128/174/127 47/48/44
f 129/175/128 119/119/103 124/124/108
f 127/176/129 88/177/130 81/79/69
f 104/103/89 130/178/131 111/179/132
f 4/12/12 1/1/1 3/3/3
f 6/5/5 7/8/8 8/6/6
f 9/7/7 10/180/40 6/5/5
f 1/1/1 8/6/6 7/8/8
f 14/30/20 11/9/9 13/11/11
f 12/10/10 4/12/12 13/11/11
f 18/33/31 15/13/13 17/15/15
f 20/17/17 21/19/19 22/18/18
f 22/18/18 10/180/40 9/7/7
f 15/13/13 18/33/31 21/19/19
f 24/23/22 11/20/9 23/22/21
f 17/15/15 16/14/14 23/22/21
f 2/2/2 25/24/23 3/3/3
f 28/27/26 7/8/8 6/5/5
f 6/5/5 10/180/40 29/28/27
f 25/24/23 2/2/2 7/8/8
f 31/31/29 30/29/28 13/11/11
f 3/3/3 26/25/24 13/11/11
f 33/38/35 32/32/30 17/15/15
f 22/18/18 21/19/19 35/35/33
f 29/28/27 10/180/40 22/18/18
f 21/19/19 18/33/31 32/32/30
f 14/21/20 30/36/28 23/22/21
f 36/37/34 33/38/35 23/22/21
f 38/40/37 39/50/46 40/41/38
f 42/43/40 43/181/42 44/44/41
f 43/46/42 45/182/133 46/47/43
f 46/47/43 45/182/133 48/49/45
f 47/48/44 48/49/45 39/50/46
f 37/39/36 40/41/38 50/52/48
f 50/52/48 51/183/20 52/53/49
f 54/85/75 53/54/50 52/53/49
f 49/51/47 53/54/50 55/55/51
f 38/40/37 56/56/52 47/48/44
f 44/45/41 46/47/43 59/59/55
f 41/42/39 44/44/41 58/61/54
f 56/56/52 38/40/37 55/55/51
f 64/65/59 61/62/57 63/64/58
f 66/67/60 64/65/59 65/66/58
f 68/184/113 66/67/60 67/68/58
f 70/70/61 68/184/113 67/68/58
f 69/69/58 71/185/58 72/71/62
f 74/73/64 75/81/71 76/74/65
f 77/75/66 78/186/68 42/43/40
f 79/77/67 80/187/134 78/78/68
f 82/80/70 80/187/134 79/77/67
f 75/81/71 82/80/70 81/79/69
f 84/83/73 74/73/64 73/72/63
f 52/53/49 51/183/20 84/83/73
f 83/82/72 85/84/74 52/53/49
f 83/82/72 73/72/63 86/86/76
f 88/177/130 87/87/77 81/79/69
f 90/89/79 79/77/67 77/76/66
f 89/90/78 77/75/66 41/42/39
f 87/87/77 86/86/76 76/74/65
f 92/92/81 93/148/118 94/93/82
f 96/95/58 97/143/119 98/96/83
f 40/41/38 39/50/46 100/98/85
f 102/100/87 43/181/42 42/43/40
f 103/102/88 45/182/133 43/46/42
f 48/49/45 45/182/133 103/102/88
f 39/50/46 48/49/45 104/103/89
f 50/52/48 40/41/38 99/97/84
f 106/105/91 51/183/20 50/52/48
f 105/104/90 107/106/92 106/105/91
f 105/104/90 99/97/84 109/108/94
f 111/179/132 110/109/95 104/103/89
f 113/111/97 103/102/88 102/101/87
f 112/113/96 102/100/87 101/99/86
f 110/109/95 109/108/94 100/98/85
f 116/115/100 75/81/71 74/73/64
f 42/43/40 78/186/68 117/116/101
f 78/78/68 80/187/134 118/118/102
f 118/118/102 80/187/134 82/80/70
f 119/119/103 82/80/70 75/81/71
f 115/114/99 74/73/64 84/83/73
f 84/83/73 51/183/20 106/105/91
f 108/107/93 121/121/105 106/105/91
f 122/122/106 115/114/99 120/120/104
f 116/115/100 123/123/107 119/119/103
f 117/117/101 118/118/102 126/126/110
f 101/99/86 117/116/101 125/127/109
f 115/114/99 122/122/106 116/115/100
f 132/129/112 66/137/60 68/130/113
f 133/132/114 134/144/120 70/133/61
f 136/135/116 61/188/57 64/136/59
f 132/129/112 135/134/115 64/136/59
f 139/189/58 137/138/117 138/140/58
f 138/140/58 94/139/82 140/142/58
f 140/142/58 93/141/118 96/95/58
f 131/128/111 68/130/113 70/133/61
f 141/146/121 142/190/126 143/147/122
f 92/92/81 144/150/123 97/149/119
f 144/150/123 141/146/121 98/145/83
f 143/151/122 145/191/58 95/94/58
f 147/192/124 136/152/116 146/154/124
f 146/154/124 135/153/115 148/156/124
f 148/156/124 132/155/112 149/158/124
f 149/158/124 131/157/111 134/160/120
f 133/161/114 151/193/124 150/159/124
f 91/165/80 152/162/125 154/164/124
f 92/167/81 91/165/80 155/166/124
f 144/194/123 92/167/81 156/168/124
f 141/170/121 144/194/123 156/168/124
f 157/169/124 158/195/124 142/171/126
f 152/173/125 91/91/80 94/93/82
f 128/174/127 59/59/55 47/48/44
f 59/59/55 46/47/43 47/48/44
f 126/126/110 118/118/102 119/119/103
f 129/175/128 126/126/110 119/119/103
f 90/89/79 127/176/129 81/79/69
f 79/77/67 90/89/79 81/79/69
f 103/102/88 113/111/97 104/103/89
f 113/111/97 130/178/131 104/103/89
